<svg xmlns="http://www.w3.org/2000/svg" width="760" height="360" viewBox="0 0 760 360" role="img" aria-label="Exterior body diagram">
  <rect width="760" height="360" rx="28" fill="#101010"/>
  <g fill="none" stroke="#f5f5f5" stroke-linecap="round" stroke-linejoin="round">
    <path stroke-width="8" d="M142 216c18-58 48-98 90-121 54-30 241-31 296 0 42 24 72 63 90 121"/>
    <path stroke-width="6" d="M188 216h384c34 0 57 24 57 54v15H131v-15c0-30 23-54 57-54Z"/>
    <path stroke-width="5" d="M244 111h272l44 105H200l44-105Z"/>
    <path stroke-width="4" d="M300 111v105M460 111v105M217 154h326"/>
    <path stroke-width="5" d="M150 238h76M534 238h76M285 285h190"/>
  </g>
  <g fill="#080808" stroke="#f5f5f5" stroke-width="6">
    <circle cx="226" cy="285" r="34"/>
    <circle cx="534" cy="285" r="34"/>
  </g>
  <g fill="none" stroke="#a3a3a3" stroke-linecap="round" stroke-width="4">
    <path d="M228 285h-34M228 285l-24-24M228 285v-34M228 285l24-24M228 285h34M228 285l24 24M228 285v34M228 285l-24 24"/>
    <path d="M534 285h-34M534 285l-24-24M534 285v-34M534 285l24-24M534 285h34M534 285l24 24M534 285v34M534 285l-24 24"/>
  </g>
  <g fill="#f5f5f5">
    <rect x="144" y="250" width="48" height="14" rx="7"/>
    <rect x="568" y="250" width="48" height="14" rx="7"/>
  </g>
</svg>
