<svg xmlns="http://www.w3.org/2000/svg" width="760" height="360" viewBox="0 0 760 360" role="img" aria-label="Inner structure diagram">
  <rect width="760" height="360" rx="28" fill="#101010"/>
  <g fill="none" stroke="#f5f5f5" stroke-linecap="round" stroke-linejoin="round">
    <path stroke-width="8" d="M164 270V139c0-42 34-76 76-76h280c42 0 76 34 76 76v131"/>
    <path stroke-width="6" d="M206 270V143c0-20 16-36 36-36h276c20 0 36 16 36 36v127"/>
    <path stroke-width="5" d="M206 174h348M266 107v163M380 107v163M494 107v163"/>
    <path stroke-width="5" d="M156 270h448v30H156z"/>
    <path stroke-width="4" d="M244 64 190 18M516 64l54-46M380 63V22"/>
  </g>
  <g fill="#080808" stroke="#f5f5f5" stroke-width="6">
    <circle cx="236" cy="300" r="30"/>
    <circle cx="524" cy="300" r="30"/>
  </g>
  <g fill="none" stroke="#a3a3a3" stroke-linecap="round" stroke-width="4">
    <path d="M236 300h-30M236 300l-21-21M236 300v-30M236 300l21-21M236 300h30M236 300l21 21M236 300v30M236 300l-21 21"/>
    <path d="M524 300h-30M524 300l-21-21M524 300v-30M524 300l21-21M524 300h30M524 300l21 21M524 300v30M524 300l-21 21"/>
  </g>
  <g fill="#f5f5f5">
    <rect x="184" y="236" width="84" height="12" rx="6"/>
    <rect x="492" y="236" width="84" height="12" rx="6"/>
  </g>
</svg>
