<svg width="1555" height="315" viewBox="0 0 1555 315" fill="none" xmlns="http://www.w3.org/2000/svg">
    <path d="M235.169 0.00378311C237.079 0.087587 238.989 0.174032 240.899 0.262923C242.894 0.288274 244.888 0.305703 246.882 0.315642C252.11 0.365232 257.328 0.532016 262.552 0.721236C266.796 0.854595 271.039 0.902485 275.285 0.94606C280.386 1.00071 285.486 1.09587 290.587 1.20042C291.544 1.21855 292.502 1.23668 293.488 1.25536C303.998 1.48989 313.472 1.93379 323.243 6.25902C324.365 6.7539 324.365 6.7539 325.51 7.25877C327.361 8.10964 329.144 9.03065 330.931 10.009C331.564 10.3541 332.197 10.6991 332.849 11.0547C348.288 19.748 357.96 34.4735 362.805 51.3278C364.87 59.7761 364.64 68.1472 364.584 76.7873C364.583 78.6314 364.583 80.4756 364.585 82.3197C364.586 87.292 364.568 92.2642 364.547 97.2365C364.529 102.445 364.527 107.654 364.523 112.863C364.514 122.712 364.489 132.561 364.459 142.41C364.426 153.629 364.409 164.848 364.394 176.067C364.363 199.131 364.31 222.195 364.243 245.259C360.947 244.797 357.652 244.331 354.356 243.864C353.437 243.736 352.518 243.607 351.57 243.474C343.09 242.271 334.665 240.815 326.243 239.259C325.913 237.939 325.583 236.619 325.243 235.259C324.583 235.259 323.923 235.259 323.243 235.259C321.526 230.921 319.817 226.579 318.116 222.234C317.537 220.757 316.955 219.281 316.37 217.805C315.53 215.683 314.698 213.557 313.868 211.431C313.606 210.773 313.343 210.116 313.073 209.439C311.781 206.103 311.243 203.902 311.243 200.259C310.151 200.266 309.059 200.272 307.934 200.279C297.579 200.34 287.224 200.385 276.869 200.414C271.546 200.43 266.224 200.451 260.902 200.485C255.754 200.518 250.606 200.536 245.458 200.544C243.506 200.549 241.554 200.56 239.602 200.576C227.779 200.671 216.774 199.965 205.243 197.259C206.665 193.598 208.268 190.408 210.368 187.083C210.993 186.089 211.619 185.094 212.263 184.07C212.916 183.039 213.57 182.008 214.243 180.947C215.514 178.93 216.785 176.913 218.056 174.896C218.757 173.856 219.458 172.816 220.181 171.745C221.804 169.213 222.798 166.786 223.739 163.933C225.619 158.963 227.568 155.059 232.243 152.259C242.806 149.677 254.143 150.681 264.916 151.16C269.01 151.325 273.107 151.397 277.204 151.478C285.221 151.649 293.231 151.921 301.243 152.259C300.92 151.43 300.597 150.6 300.264 149.746C297.71 143.155 295.26 136.551 292.981 129.861C289.454 119.656 285.559 109.61 281.591 99.5702C280.005 95.5568 278.428 91.5399 276.85 87.5233C275.691 84.5732 274.531 81.6236 273.371 78.6741C270.6 71.6266 267.849 64.5721 265.118 57.509C264.508 55.9416 264.508 55.9416 263.885 54.3425C263.526 53.4126 263.167 52.4827 262.798 51.5246C262.493 50.7386 262.189 49.9526 261.875 49.1428C261.243 47.259 261.243 47.259 261.243 45.259C258.863 47.4776 257.149 49.7726 255.415 52.5207C254.87 53.3804 254.325 54.24 253.764 55.1257C253.179 56.0566 252.595 56.9874 251.993 57.9465C251.381 58.9161 250.768 59.8856 250.137 60.8845C248.167 64.0061 246.204 67.1318 244.243 70.259C243.596 71.2908 242.949 72.3225 242.282 73.3855C237.926 80.337 233.583 87.2968 229.243 94.259C227.515 97.0304 225.786 99.8013 224.056 102.572C223.468 103.513 223.468 103.513 222.868 104.473C219.284 110.206 215.669 115.918 212.055 121.631C207.28 129.186 202.547 136.767 197.815 144.348C193.936 150.56 190.037 156.759 186.118 162.947C181.727 169.882 177.379 176.844 173.056 183.822C172.49 184.733 171.925 185.645 171.342 186.584C170.821 187.427 170.3 188.27 169.763 189.138C169.068 190.26 169.068 190.26 168.36 191.406C167.212 193.256 167.212 193.256 166.243 195.259C165.358 195.284 164.472 195.309 163.56 195.335C153.786 195.615 144.014 195.921 134.243 196.259C133.315 196.291 132.387 196.323 131.431 196.356C122.367 196.7 113.675 197.91 104.79 199.638C101.243 200.259 101.243 200.259 97.2432 200.259C98.6808 196.267 100.595 192.983 102.931 189.447C107.227 182.875 111.404 176.235 115.556 169.572C120.098 162.288 124.651 155.012 129.243 147.759C134.421 139.579 139.554 131.37 144.679 123.157C148.491 117.052 152.325 110.962 156.181 104.884C161.569 96.3808 166.841 87.8076 172.108 79.2287C178.473 68.867 184.914 58.5534 191.371 48.2488C193.282 45.1978 195.189 42.1447 197.095 39.091C197.737 38.0619 198.38 37.0327 199.042 35.9724C200.234 34.0621 201.427 32.1516 202.618 30.2409C203.752 28.4255 204.905 26.6217 206.077 24.8303C207.769 22.1563 209.156 19.4131 210.525 16.5614C216.653 4.51166 221.455 -0.152369 235.169 0.00378311Z" fill="#0A5EF4"/>
    <path d="M156.43 204.884C157.718 204.888 159.006 204.891 160.333 204.895C179.484 204.959 198.268 205.564 217.243 208.259C218.954 208.468 220.665 208.675 222.376 208.88C248.615 212.297 273.52 225.882 296.299 238.744C306.319 244.362 315.909 246.699 327.243 248.259C328.091 248.377 328.939 248.496 329.813 248.618C333.286 249.101 336.76 249.581 340.235 250.048C349.528 251.342 358.602 253.437 367.713 255.653C370.069 256.217 372.43 256.745 374.798 257.259C387.075 259.993 400.951 265.321 408.243 276.259C408.243 277.249 408.243 278.239 408.243 279.259C404.834 280.282 401.658 280.428 398.108 280.499C396.243 280.538 396.243 280.538 394.341 280.577C388.614 280.668 382.887 280.728 377.159 280.774C374.156 280.8 371.154 280.849 368.152 280.917C351.086 281.298 336.292 281.416 321.243 272.259C319.541 271.371 317.835 270.492 316.118 269.634C315.355 269.247 314.592 268.86 313.805 268.462C296.371 260.276 277.031 255.214 258.243 251.259C256.743 250.905 255.243 250.551 253.743 250.196C244.061 248.081 234.242 246.92 224.368 246.196C223.252 246.108 222.135 246.02 220.985 245.929C213.698 245.408 206.471 245.205 199.169 245.192C197.417 245.181 195.664 245.168 193.912 245.156C190.48 245.132 187.053 245.16 183.62 245.216C174.777 245.238 169.005 244.864 162.335 238.42C161.645 237.707 160.954 236.994 160.243 236.259C158.86 235.11 157.46 233.982 156.04 232.88C155.376 232.354 154.713 231.829 154.029 231.287C136.034 217.228 120.352 213.1 97.4597 215.558C92.6745 216.251 87.9558 217.183 83.2429 218.259C86.2516 218.34 86.2516 218.34 89.2156 217.771C94.3519 217.009 99.4981 217.075 104.68 217.071C105.679 217.059 106.677 217.047 107.706 217.034C115.79 217.018 122.518 217.801 129.555 222.134C130.377 222.626 131.198 223.119 132.044 223.626C134.293 225.296 135.693 226.941 137.243 229.259C136.158 229.296 135.072 229.334 133.954 229.372C132.509 229.438 131.063 229.504 129.618 229.571C128.549 229.605 128.549 229.605 127.458 229.64C122.752 229.877 119.307 230.65 115.243 233.259C114.274 235.843 114.274 235.843 114.243 238.259C117.791 240.374 121.127 240.812 125.196 241.329C126.186 241.458 126.186 241.458 127.197 241.59C129.295 241.861 131.394 242.123 133.493 242.384C134.92 242.567 136.347 242.75 137.774 242.935C141.263 243.384 144.753 243.824 148.243 244.259C148.243 244.919 148.243 245.579 148.243 246.259C145.472 247.238 142.701 248.217 139.93 249.196C139.145 249.474 138.359 249.752 137.55 250.038C136.792 250.306 136.035 250.573 135.255 250.849C134.558 251.095 133.862 251.341 133.144 251.595C129.559 252.847 126.849 253.371 123.055 253.321C122.154 253.312 121.253 253.303 120.325 253.294C119.638 253.282 118.951 253.271 118.243 253.259C120.001 249.415 120.001 249.415 122.18 248.009C124.243 247.259 124.243 247.259 127.243 247.259C127.243 246.599 127.243 245.939 127.243 245.259C77.7429 245.754 77.7429 245.754 27.2429 246.259C33.8429 247.579 40.4429 248.899 47.2429 250.259C56.9103 252.626 56.9103 252.626 60.2778 253.506C77.9046 258.085 95.6193 262.266 113.383 266.276C115.873 266.839 118.363 267.404 120.851 267.972C134.537 271.09 148.19 273.917 162.079 275.973C167.578 276.79 172.869 277.837 178.243 279.259C181.505 279.803 183.321 279.87 186.11 278.021C187.475 276.95 188.836 275.875 190.192 274.794C197.106 269.619 204.853 269.389 213.243 270.259C223.224 272.419 230.803 279.496 236.618 287.634C241.682 295.796 244.427 304.706 244.243 314.259C241.603 314.259 238.963 314.259 236.243 314.259C236.016 312.98 235.789 311.701 235.555 310.384C233.253 300.337 228.717 293.218 220.243 287.259C214.362 283.8 207.926 283.399 201.243 284.259C194.116 286.352 188.653 291.408 184.766 297.618C182.61 301.678 181.149 305.444 180.178 309.935C179.913 311.15 179.913 311.15 179.644 312.389C179.511 313.006 179.379 313.623 179.243 314.259C162.552 314.376 145.861 314.464 129.17 314.518C121.419 314.544 113.668 314.579 105.917 314.636C99.1538 314.686 92.3914 314.718 85.6285 314.729C82.0536 314.736 78.4791 314.751 74.9043 314.788C51.681 315.017 33.4086 313.12 15.8054 296.384C4.78932 284.707 0.0675998 271.468 0.0554199 255.634C0.0431738 254.788 0.0309277 253.943 0.0183105 253.071C0.016377 252.254 0.0144434 251.437 0.0124512 250.595C0.00834228 249.858 0.0042334 249.121 0 248.362C0.296231 245.797 0.749191 244.381 2.24292 242.259C4.7478 240.786 4.7478 240.786 7.94604 239.411C9.13948 238.894 10.3329 238.376 11.5625 237.843C12.8722 237.293 14.1824 236.744 15.4929 236.196C16.8415 235.623 18.1901 235.049 19.5386 234.476C38.937 226.287 58.8155 218.452 79.2429 213.259C80.4376 212.947 80.4376 212.947 81.6565 212.628C106.355 206.258 131.002 204.726 156.43 204.884Z" fill="#030F2A"/>
    <path d="M106.041 2.14561C106.822 2.14546 107.603 2.14532 108.407 2.14517C110.983 2.14586 113.558 2.15364 116.134 2.16148C117.922 2.16334 119.71 2.16477 121.497 2.16577C126.199 2.16958 130.901 2.1794 135.603 2.19047C140.402 2.20071 145.202 2.20527 150.001 2.21031C159.415 2.22103 168.829 2.23809 178.243 2.25913C175.852 7.08772 173.109 11.6843 170.368 16.3216C169.786 17.3068 169.204 18.292 168.604 19.307C164.504 26.2109 160.286 33.0276 155.972 39.7994C146.427 54.7951 137.214 70.0008 127.993 85.1966C123.378 92.7995 118.689 100.348 113.917 107.853C109.667 114.552 105.514 121.308 101.368 128.072C95.814 137.127 90.1819 146.125 84.4602 155.075C80.2032 161.738 75.9921 168.427 71.8057 175.134C70.8847 176.609 70.8847 176.609 69.9451 178.114C66.6486 183.397 63.3571 188.683 60.0674 193.97C59.3854 195.065 58.7034 196.159 58.0007 197.287C56.6914 199.389 55.3835 201.491 54.0774 203.595C53.4876 204.541 52.8977 205.487 52.29 206.462C51.7728 207.294 51.2556 208.126 50.7227 208.983C50.2344 209.734 49.7462 210.485 49.2432 211.259C48.8045 211.969 48.3658 212.678 47.9138 213.409C45.6849 215.877 43.5935 216.559 40.4658 217.661C39.3115 218.077 38.1571 218.493 36.9678 218.921C35.7593 219.342 34.5508 219.763 33.3057 220.197C30.9415 221.037 28.5782 221.879 26.2158 222.724C25.0584 223.136 23.901 223.549 22.7085 223.973C18.2655 225.622 13.9154 227.456 9.56909 229.343C7.24316 230.259 7.24316 230.259 5.24316 230.259C5.97795 222.742 7.67411 215.485 9.36816 208.134C9.68287 206.756 9.99732 205.378 10.3115 204C13.2823 190.994 16.3174 178.003 19.3638 165.015C20.2555 161.207 21.1426 157.397 22.0283 153.587C22.6207 151.04 23.2132 148.494 23.8057 145.947C24.097 144.693 24.3883 143.44 24.6885 142.149C26.0215 136.43 27.368 130.715 28.7705 125.013C32.0812 111.533 35.0141 98.0096 37.708 84.3949C42.6435 59.6338 42.6435 59.6338 47.9307 48.1966C48.2732 47.447 48.6156 46.6973 48.9685 45.9249C58.7771 25.0365 72.2583 11.3503 94.2432 3.25913C98.1166 1.98074 102.009 2.12585 106.041 2.14561Z" fill="#020E2A"/>
    <path d="M538.034 109.139C538.813 109.141 539.593 109.143 540.396 109.146C541.277 109.146 542.157 109.146 543.065 109.146C544.022 109.151 544.98 109.156 545.966 109.162C547.429 109.164 547.429 109.164 548.921 109.166C552.049 109.171 555.177 109.184 558.306 109.197C560.421 109.202 562.536 109.206 564.651 109.21C569.849 109.221 575.046 109.238 580.243 109.259C580.436 110.292 580.628 111.326 580.827 112.39C582.551 121.628 582.551 121.628 584.341 130.853C586.184 140.195 587.733 149.47 588.806 158.931C589.164 161.658 589.641 164.177 590.368 166.822C591.314 170.538 591.402 173.455 591.243 177.259C591.903 177.259 592.563 177.259 593.243 177.259C593.511 176.535 593.78 175.811 594.056 175.066C595.236 172.276 596.602 169.904 598.235 167.357C598.849 166.398 599.462 165.44 600.094 164.452C601.096 162.903 601.096 162.903 602.118 161.322C602.813 160.242 603.507 159.161 604.223 158.049C610.866 147.743 617.67 137.544 624.502 127.363C624.914 126.749 625.325 126.136 625.749 125.504C626.862 123.843 627.978 122.184 629.094 120.525C631.182 117.516 631.182 117.516 632.267 115.105C633.419 112.827 634.447 111.079 636.243 109.259C639.629 108.167 642.829 108.322 646.356 108.478C647.326 108.489 648.296 108.501 649.294 108.512C652.384 108.557 655.468 108.657 658.556 108.759C660.653 108.799 662.75 108.836 664.847 108.869C669.981 108.957 675.111 109.095 680.243 109.259C679.038 116.911 677.623 124.465 675.868 132.009C675.649 132.961 675.43 133.913 675.204 134.893C672.983 144.484 670.648 154.044 668.095 163.552C665.365 173.735 662.896 183.955 660.558 194.235C657.957 205.621 655.108 216.937 652.243 228.259C641.353 228.259 630.463 228.259 619.243 228.259C620.48 220.84 621.734 213.74 623.618 206.509C624.065 204.762 624.512 203.014 624.958 201.267C625.177 200.417 625.396 199.566 625.622 198.69C626.175 196.526 626.716 194.359 627.247 192.189C629.202 184.224 631.283 176.299 633.431 168.384C633.693 167.414 633.955 166.443 634.225 165.443C634.596 164.088 634.596 164.088 634.974 162.705C635.194 161.895 635.415 161.086 635.642 160.252C636.243 158.259 636.243 158.259 637.243 156.259C636.583 156.259 635.923 156.259 635.243 156.259C635.046 157.037 634.849 157.814 634.646 158.615C632.685 163.709 629.778 168.012 626.806 172.572C626.174 173.553 625.542 174.534 624.891 175.545C622.087 179.896 619.262 184.232 616.435 188.568C615.579 189.881 614.723 191.195 613.868 192.509C613.236 193.479 613.236 193.479 612.592 194.467C607.4 202.482 602.437 210.642 597.46 218.791C596.798 219.874 596.136 220.956 595.454 222.072C594.859 223.048 594.264 224.023 593.651 225.029C592.243 227.259 592.243 227.259 591.243 228.259C589.535 228.346 587.824 228.366 586.114 228.357C584.563 228.352 584.563 228.352 582.979 228.347C581.891 228.339 580.802 228.33 579.681 228.322C578.042 228.315 578.042 228.315 576.37 228.308C573.661 228.296 570.952 228.28 568.243 228.259C565.544 211.765 562.895 195.27 560.5 178.729C560.348 177.684 560.196 176.64 560.04 175.564C559.844 174.202 559.844 174.202 559.645 172.813C559.369 171.063 559.052 169.318 558.699 167.581C558.22 165.142 558.144 162.929 558.181 160.447C558.19 159.657 558.199 158.866 558.208 158.052C558.22 157.461 558.231 156.869 558.243 156.259C557.583 156.259 556.923 156.259 556.243 156.259C556.208 156.824 556.173 157.39 556.136 157.972C555.543 165.448 553.886 172.5 552.056 179.759C551.422 182.324 550.789 184.889 550.157 187.455C549.997 188.101 549.837 188.748 549.673 189.414C547.75 197.211 545.972 205.039 544.198 212.871C543.969 213.873 543.74 214.875 543.505 215.908C543.309 216.776 543.112 217.644 542.91 218.538C542.11 221.802 541.166 225.028 540.243 228.259C529.353 228.259 518.463 228.259 507.243 228.259C511.217 210.073 515.543 191.983 520.087 173.931C520.872 170.809 521.658 167.688 522.443 164.566C522.975 162.449 523.508 160.331 524.041 158.214C527.443 144.686 530.744 131.156 533.632 117.508C533.837 116.54 534.043 115.573 534.255 114.576C534.425 113.755 534.594 112.935 534.769 112.09C535.385 109.713 535.559 109.305 538.034 109.139Z" fill="#04102A"/>
    <path d="M1495.31 108.629C1497.12 108.626 1497.12 108.626 1498.96 108.622C1501.48 108.623 1504 108.636 1506.52 108.661C1510.37 108.696 1514.2 108.682 1518.04 108.663C1520.51 108.669 1522.97 108.679 1525.44 108.692C1526.57 108.687 1527.71 108.682 1528.88 108.677C1536.4 108.787 1544 109.614 1549.93 114.705C1555.28 120.732 1554.68 127.613 1554.24 135.258C1553.66 138.973 1552.77 142.561 1551.79 146.192C1551.54 147.191 1551.28 148.189 1551.02 149.218C1550.21 152.381 1549.39 155.538 1548.56 158.696C1547.75 161.81 1546.95 164.925 1546.15 168.04C1545.62 170.094 1545.09 172.147 1544.56 174.199C1542.56 181.916 1540.69 189.659 1538.95 197.437C1536.53 207.914 1532.68 217.288 1523.24 223.258C1514.32 227.763 1505.92 228.426 1496.07 228.497C1494.45 228.509 1494.45 228.509 1492.81 228.521C1490.53 228.535 1488.25 228.546 1485.98 228.553C1483.66 228.565 1481.35 228.585 1479.03 228.615C1475.67 228.658 1472.31 228.674 1468.95 228.684C1467.92 228.702 1466.9 228.719 1465.85 228.737C1457.61 228.713 1450.61 227.131 1444.24 221.696C1438.56 214.768 1439.4 206.853 1440.24 198.258C1441.49 190.801 1443.59 183.534 1445.62 176.258C1446.39 173.416 1447.15 170.572 1447.91 167.728C1448.38 165.979 1448.86 164.231 1449.34 162.486C1450.7 157.516 1451.84 152.546 1452.81 147.484C1455.08 135.754 1458 123.232 1468.07 115.67C1476.74 110.046 1485.14 108.51 1495.31 108.629Z" fill="#0553E7"/>
    <path d="M834.998 108.952C836.661 108.928 836.661 108.928 838.357 108.904C839.541 108.898 840.726 108.893 841.946 108.887C843.796 108.874 843.796 108.874 845.682 108.86C848.288 108.845 850.894 108.837 853.499 108.833C857.465 108.821 861.43 108.772 865.395 108.721C867.933 108.712 870.471 108.705 873.009 108.7C874.185 108.68 875.361 108.661 876.573 108.641C885.465 108.689 892.917 110.638 899.368 117.071C903.765 124.292 901.795 135.782 899.96 143.695C899.031 147.359 898.02 150.996 896.993 154.633C896.36 156.959 895.734 159.287 895.109 161.615C894.702 163.126 894.293 164.637 893.882 166.146C892.424 171.507 891.129 176.883 889.993 182.321C884.113 209.642 884.113 209.642 877.243 217.258C876.731 217.827 876.22 218.395 875.692 218.981C868.874 225.604 858.681 228.324 849.352 228.435C847.934 228.455 847.934 228.455 846.488 228.474C844.971 228.485 844.971 228.485 843.423 228.497C842.368 228.505 841.314 228.513 840.227 228.521C837.997 228.535 835.766 228.546 833.535 228.554C831.268 228.565 829 228.585 826.733 228.615C823.442 228.658 820.152 228.674 816.86 228.684C815.861 228.702 814.862 228.719 813.832 228.737C806.472 228.715 798.362 227.724 792.523 222.811C787.313 216.784 786.834 211.889 786.954 204.129C787.427 197.794 789.066 191.911 790.806 185.821C791.549 183.112 792.279 180.4 793.009 177.688C793.195 176.999 793.382 176.31 793.575 175.601C795.977 166.665 797.928 157.627 799.896 148.587C805.643 122.433 805.643 122.433 817.899 114.137C823.436 110.823 828.55 109.023 834.998 108.952Z" fill="#04102A"/>
    <path d="M926.243 109.258C935.197 109.189 944.151 109.136 953.106 109.103C957.264 109.087 961.423 109.066 965.582 109.032C969.602 108.999 973.621 108.982 977.642 108.974C979.169 108.968 980.695 108.958 982.222 108.941C1002.07 108.738 1002.07 108.738 1009.74 114.696C1014.73 119.812 1014.63 124.516 1014.61 131.356C1014.46 138.339 1012.97 144.637 1010.85 151.29C1010.2 153.411 1009.63 155.545 1009.08 157.692C1007.03 165.448 1005.13 172.488 999.243 178.258C998.662 178.83 998.08 179.401 997.481 179.989C994.302 182.892 991.428 184.99 987.243 186.258C988.567 193.111 990.053 199.909 991.681 206.696C991.885 207.56 992.089 208.425 992.3 209.315C993.818 215.675 995.521 221.943 997.243 228.258C985.033 228.258 972.823 228.258 960.243 228.258C959.831 225.453 959.418 222.648 958.993 219.758C957.79 211.85 956.109 204.198 954.013 196.481C953.243 193.258 953.243 193.258 953.243 189.258C948.953 189.258 944.663 189.258 940.243 189.258C937.855 199.056 935.68 208.833 933.954 218.77C933.243 222.258 933.243 222.258 931.243 228.258C920.023 228.258 908.803 228.258 897.243 228.258C898.842 221.064 900.466 213.878 902.118 206.696C902.484 205.098 902.484 205.098 902.856 203.467C904.874 194.703 907.043 185.979 909.243 177.258C910.821 170.993 912.397 164.727 913.97 158.461C914.441 156.587 914.913 154.712 915.386 152.838C918.297 141.297 921.097 129.742 923.661 118.118C923.951 116.812 923.951 116.812 924.247 115.48C924.416 114.711 924.585 113.942 924.759 113.15C925.243 111.258 925.243 111.258 926.243 109.258Z" fill="#05102B"/>
    <path d="M700.243 109.259C709.362 109.212 718.481 109.177 727.6 109.155C731.835 109.145 736.07 109.131 740.305 109.108C744.397 109.086 748.488 109.074 752.579 109.069C754.136 109.065 755.692 109.058 757.248 109.047C777.497 108.912 777.497 108.912 783.618 114.634C784.589 115.512 784.589 115.512 785.579 116.407C789.571 120.849 789.644 124.875 789.542 130.656C789.02 136.953 787.594 143.013 786.1 149.141C785.556 151.383 785.04 153.631 784.526 155.88C781.818 167.429 778.348 179.594 768.142 186.728C760.246 191.394 752.732 192.566 743.712 192.454C742.397 192.45 742.397 192.45 741.056 192.446C738.285 192.434 735.514 192.409 732.743 192.384C730.853 192.374 728.962 192.365 727.071 192.356C722.462 192.335 717.853 192.3 713.243 192.259C713.112 193.436 712.98 194.614 712.845 195.827C712.361 199.688 711.575 203.39 710.614 207.165C710.333 208.282 710.051 209.399 709.76 210.55C709.404 211.939 709.048 213.328 708.681 214.759C707.546 219.214 706.412 223.669 705.243 228.259C694.353 228.259 683.463 228.259 672.243 228.259C672.876 223.194 673.515 218.627 674.661 213.724C674.943 212.513 675.225 211.303 675.515 210.056C675.817 208.782 676.119 207.509 676.431 206.196C676.746 204.858 677.06 203.519 677.375 202.18C679.946 191.301 682.735 180.484 685.604 169.681C690.185 152.324 694.233 134.821 698.341 117.348C698.616 116.177 698.616 116.177 698.898 114.981C699.346 113.074 699.795 111.166 700.243 109.259Z" fill="#04102A"/>
    <path d="M1250.24 109.259C1261.13 109.259 1272.02 109.259 1283.24 109.259C1280.93 124.276 1280.93 124.276 1279.37 131.071C1279.22 131.737 1279.07 132.403 1278.92 133.089C1276.65 143.147 1274.05 153.134 1271.48 163.12C1270.68 166.233 1269.89 169.347 1269.1 172.462C1268.69 174.052 1268.28 175.641 1267.87 177.229C1267.26 179.571 1266.67 181.917 1266.07 184.263C1265.89 184.964 1265.7 185.665 1265.51 186.387C1264.42 190.762 1263.98 194.754 1264.24 199.259C1266.67 201.683 1272.8 200.541 1276.06 200.571C1277.07 200.6 1278.08 200.629 1279.12 200.659C1280.1 200.668 1281.07 200.676 1282.08 200.685C1282.97 200.699 1283.86 200.714 1284.79 200.729C1288.18 200.08 1289.2 199.036 1291.24 196.259C1292.13 193.609 1292.81 191.148 1293.39 188.435C1293.57 187.665 1293.75 186.894 1293.93 186.101C1294.51 183.594 1295.06 181.083 1295.62 178.571C1296.01 176.834 1296.41 175.097 1296.81 173.36C1297.6 169.909 1298.39 166.456 1299.17 163.002C1300.54 156.95 1301.97 150.915 1303.43 144.884C1303.66 143.92 1303.89 142.956 1304.13 141.963C1306.76 131.043 1309.5 120.152 1312.24 109.259C1323.13 109.259 1334.02 109.259 1345.24 109.259C1345.24 118.245 1345.24 118.245 1343.96 122.454C1343.68 123.402 1343.4 124.349 1343.11 125.325C1342.8 126.335 1342.5 127.344 1342.18 128.384C1339.38 137.97 1336.91 147.585 1334.68 157.321C1332.31 167.705 1329.84 178.055 1327.2 188.372C1326.08 192.771 1325.06 197.146 1324.24 201.61C1322.33 211.374 1316.26 218.586 1308.24 224.259C1300.19 228.553 1291.24 228.424 1282.34 228.462C1280.79 228.47 1280.79 228.47 1279.2 228.479C1277.02 228.489 1274.83 228.495 1272.65 228.499C1269.32 228.509 1265.99 228.54 1262.67 228.571C1260.54 228.578 1258.41 228.583 1256.28 228.587C1255.29 228.599 1254.3 228.612 1253.29 228.624C1245.83 228.6 1239.17 227.516 1233.37 222.384C1232.81 221.912 1232.26 221.44 1231.69 220.954C1228.1 216.739 1227.92 212.32 1227.87 206.946C1227.84 205.692 1227.81 204.438 1227.78 203.146C1228.12 196.746 1230.02 190.569 1231.67 184.405C1232.41 181.628 1233.13 178.845 1233.85 176.063C1234.4 173.967 1234.94 171.872 1235.49 169.776C1239.02 156.25 1242.39 142.722 1245.3 129.049C1245.52 128.045 1245.73 127.042 1245.95 126.009C1246.13 125.158 1246.31 124.307 1246.49 123.431C1247.62 118.675 1248.96 113.973 1250.24 109.259Z" fill="#0451E2"/>
    <path d="M1187.68 108.509C1189.58 108.569 1191.47 108.624 1193.37 108.673C1198 108.805 1202.62 109.011 1207.24 109.259C1210.34 150.751 1210.34 150.751 1210.83 166.09C1211.24 177.545 1212.26 188.966 1213.23 200.385C1213.36 201.991 1213.49 203.598 1213.62 205.204C1213.68 205.909 1213.75 206.613 1213.81 207.339C1214.38 214.369 1214.24 221.119 1214.24 228.259C1203.02 228.259 1191.8 228.259 1180.24 228.259C1180.24 221.659 1180.24 215.059 1180.24 208.259C1168.36 208.259 1156.48 208.259 1144.24 208.259C1143.58 210.239 1142.92 212.219 1142.24 214.259C1139.93 218.879 1137.62 223.499 1135.24 228.259C1124.02 228.259 1112.8 228.259 1101.24 228.259C1102.69 224.632 1104.11 221.542 1106.01 218.181C1106.56 217.198 1107.11 216.215 1107.68 215.202C1108.28 214.148 1108.88 213.095 1109.49 212.009C1110.77 209.743 1112.05 207.478 1113.32 205.212C1113.98 204.043 1114.64 202.875 1115.3 201.706C1118.29 196.397 1121.27 191.078 1124.24 185.759C1125.41 183.673 1126.58 181.587 1127.75 179.501C1128.61 177.954 1128.61 177.954 1129.5 176.375C1131.23 173.276 1132.97 170.177 1134.71 167.079C1135.87 165.014 1137.02 162.949 1138.18 160.884C1139.04 159.359 1139.04 159.359 1139.91 157.803C1143.02 152.244 1146.12 146.679 1149.21 141.106C1149.54 140.507 1149.88 139.908 1150.22 139.29C1151.82 136.409 1153.41 133.526 1155.01 130.642C1156.17 128.541 1157.36 126.451 1158.56 124.375C1160.33 121.274 1160.33 121.274 1161.52 117.827C1166.57 105.752 1176.34 107.884 1187.68 108.509Z" fill="#0550DF"/>
    <path d="M1032.24 109.259C1063.59 109.259 1094.94 109.259 1127.24 109.259C1123.24 126.259 1123.24 126.259 1122.24 128.259C1119.87 129.005 1117.56 129.632 1115.15 130.204C1114.44 130.379 1113.73 130.554 1113 130.734C1110.73 131.291 1108.45 131.838 1106.18 132.384C1104.64 132.759 1103.11 133.136 1101.57 133.513C1097.8 134.437 1094.02 135.35 1090.24 136.259C1090.01 137.177 1089.78 138.096 1089.55 139.042C1087.83 145.922 1086.11 152.801 1084.38 159.677C1083.51 163.12 1082.64 166.563 1081.78 170.006C1081.34 171.769 1080.89 173.531 1080.45 175.293C1077.29 187.754 1077.29 187.754 1074.64 200.329C1074.06 203.146 1073.21 205.843 1072.31 208.571C1070.15 215.108 1068.82 221.432 1067.24 228.259C1056.35 228.259 1045.46 228.259 1034.24 228.259C1035.37 219.241 1035.37 219.241 1036.26 215.298C1036.46 214.425 1036.65 213.552 1036.85 212.652C1037.06 211.739 1037.28 210.825 1037.49 209.884C1037.72 208.909 1037.94 207.934 1038.17 206.93C1039.66 200.524 1041.33 194.197 1043.15 187.878C1045.86 178.343 1048.09 168.684 1050.39 159.045C1050.55 158.351 1050.72 157.658 1050.89 156.944C1051.35 155.047 1051.8 153.149 1052.25 151.251C1053.5 146.233 1054.88 141.248 1056.24 136.259C1046.34 136.259 1036.44 136.259 1026.24 136.259C1028.24 123.259 1028.24 123.259 1032.24 109.259Z" fill="#05112B"/>
    <path d="M1359.24 109.259C1390.26 109.259 1421.28 109.259 1453.24 109.259C1451.92 115.529 1450.6 121.799 1449.24 128.259C1442.5 130.505 1442.5 130.505 1439.15 131.259C1438.43 131.424 1437.71 131.589 1436.97 131.759C1435.48 132.092 1434 132.425 1432.52 132.759C1429.26 133.506 1426.13 134.296 1422.96 135.384C1420.24 136.259 1420.24 136.259 1416.24 136.259C1416.06 137.181 1416.06 137.181 1415.88 138.121C1414.74 143.953 1413.46 149.734 1412.06 155.509C1410.56 161.734 1409.08 167.963 1407.64 174.204C1403.48 192.312 1398.94 210.281 1394.24 228.259C1383.35 228.259 1372.46 228.259 1361.24 228.259C1363.18 216.331 1365.75 204.761 1368.83 193.08C1370.07 188.369 1371.29 183.652 1372.51 178.935C1372.75 178.011 1372.99 177.088 1373.23 176.136C1375.47 167.436 1377.53 158.703 1379.49 149.935C1379.7 149.005 1379.91 148.076 1380.12 147.118C1380.29 146.339 1380.46 145.56 1380.64 144.758C1381.41 141.566 1382.34 138.416 1383.24 135.259C1373.34 135.259 1363.44 135.259 1353.24 135.259C1354.24 127.259 1354.24 127.259 1359.24 109.259Z" fill="#0557EB"/>
    <path d="M483.243 109.259C494.133 109.259 505.023 109.259 516.243 109.259C513.996 122.744 513.996 122.744 512.509 128.517C512.185 129.788 511.862 131.058 511.528 132.368C511.36 133.022 511.191 133.676 511.017 134.35C510.107 137.883 509.214 141.421 508.321 144.958C508.052 146.023 508.052 146.023 507.778 147.109C506.181 153.452 504.693 159.818 503.243 166.196C500.948 176.279 498.558 186.335 496.118 196.384C495.954 197.062 495.789 197.739 495.62 198.438C493.206 208.389 490.727 218.324 488.243 228.259C477.353 228.259 466.463 228.259 455.243 228.259C456.368 218.133 456.368 218.133 457.176 214.776C457.449 213.625 457.449 213.625 457.727 212.451C457.924 211.644 458.122 210.837 458.325 210.005C458.535 209.126 458.746 208.248 458.962 207.343C459.654 204.459 460.355 201.578 461.056 198.696C461.545 196.668 462.034 194.64 462.523 192.612C467.512 171.961 472.672 151.352 477.862 130.751C479.663 123.589 481.452 116.424 483.243 109.259Z" fill="#05102B"/>
    <path d="M852.181 135.009C853.196 134.989 854.211 134.968 855.257 134.947C856.231 134.942 857.204 134.936 858.208 134.931C859.101 134.922 859.994 134.912 860.915 134.903C863.243 135.259 863.243 135.259 865.035 136.592C867.018 139.329 866.657 142.059 866.243 145.259C865.479 148.928 864.498 152.525 863.493 156.134C862.938 158.189 862.385 160.243 861.833 162.298C861.561 163.308 861.289 164.318 861.008 165.358C859.945 169.391 858.989 173.445 858.056 177.509C857.738 178.864 857.421 180.218 857.102 181.572C856.559 183.902 856.027 186.235 855.509 188.572C855.277 189.541 855.045 190.511 854.806 191.509C854.621 192.319 854.437 193.128 854.247 193.962C852.717 197.462 851.392 199.017 848.243 201.259C844.33 201.918 840.512 201.821 836.556 201.697C834.969 201.688 834.969 201.688 833.35 201.679C825.538 201.554 825.538 201.554 823.243 199.259C822.646 192.294 824.225 186 825.868 179.259C826.272 177.569 826.272 177.569 826.684 175.844C827.248 173.494 827.816 171.145 828.388 168.797C829.225 165.334 830.033 161.866 830.837 158.396C831.346 156.246 831.857 154.096 832.368 151.947C832.597 150.946 832.826 149.945 833.062 148.914C834.3 143.829 835.377 140.024 839.243 136.259C843.122 134.32 847.914 135.031 852.181 135.009Z" fill="#F6F6F7"/>
    <path d="M1499.22 134.798C1500.14 134.802 1501.06 134.806 1502 134.81C1502.95 134.834 1503.89 134.859 1504.87 134.884C1506.3 134.886 1506.3 134.886 1507.76 134.888C1514.82 134.977 1514.82 134.977 1518.24 137.259C1518.81 144.131 1517.61 150.228 1515.99 156.884C1515.77 157.847 1515.54 158.809 1515.31 159.801C1513.7 166.54 1511.99 173.244 1510.14 179.919C1509.54 182.143 1509 184.381 1508.5 186.63C1508.27 187.683 1508.04 188.736 1507.81 189.821C1507.62 190.73 1507.44 191.639 1507.25 192.575C1505.88 196.224 1504.53 199.102 1501.24 201.259C1497.32 202.018 1493.53 201.87 1489.56 201.696C1488.5 201.678 1487.44 201.659 1486.35 201.64C1478.64 201.457 1478.64 201.457 1476.24 200.259C1475.44 190.847 1477.57 182.37 1479.87 173.335C1480.49 170.899 1481.09 168.458 1481.69 166.017C1482.65 162.131 1483.65 158.257 1484.68 154.389C1485.04 153.009 1485.41 151.628 1485.76 150.246C1486.23 148.44 1486.73 146.642 1487.23 144.845C1487.5 143.853 1487.77 142.861 1488.05 141.838C1490.37 136.839 1493.79 134.744 1499.22 134.798Z" fill="#F7FAFD"/>
    <path d="M727.243 135.259C730.993 135.171 734.743 135.118 738.493 135.071C739.557 135.046 740.62 135.021 741.716 134.995C742.741 134.985 743.765 134.976 744.821 134.966C745.764 134.95 746.707 134.934 747.678 134.918C750.727 135.323 752.079 136.094 754.243 138.259C754.831 143.351 753.849 147.44 752.243 152.259C751.963 153.176 751.684 154.094 751.396 155.04C750.918 156.509 750.918 156.509 750.431 158.009C750.135 158.932 749.84 159.854 749.536 160.805C747.89 163.928 746.388 164.705 743.243 166.259C740.564 166.599 740.564 166.599 737.724 166.552C736.702 166.542 735.68 166.532 734.628 166.522C733.573 166.497 732.518 166.472 731.431 166.446C729.819 166.426 729.819 166.426 728.175 166.405C725.53 166.37 722.887 166.32 720.243 166.259C720.995 159.629 722.654 153.276 724.306 146.821C724.587 145.708 724.869 144.595 725.159 143.448C725.851 140.717 726.545 137.988 727.243 135.259Z" fill="#F1F1F3"/>
    <path d="M964.618 135.072C965.686 135.059 966.753 135.047 967.853 135.035C968.876 135.033 969.9 135.031 970.954 135.029C972.366 135.022 972.366 135.022 973.807 135.016C976.243 135.259 976.243 135.259 979.243 137.259C979.924 144.296 979.131 151.757 976.243 158.259C973.439 161.657 971.884 163.025 967.505 163.649C964.278 163.752 961.095 163.695 957.868 163.572C956.751 163.549 955.633 163.527 954.481 163.503C951.734 163.445 948.989 163.362 946.243 163.259C947.489 156.878 948.821 150.527 950.306 144.197C950.479 143.439 950.652 142.682 950.831 141.902C952.867 133.204 956.407 135.077 964.618 135.072Z" fill="#F0F0F2"/>
    <path d="M256.243 265.259C262.842 265.025 268.892 265.918 275.368 267.134C281.838 268.314 288.279 269.444 294.806 270.259C305.375 271.727 315.229 274.44 324.243 280.259C324.243 280.919 324.243 281.579 324.243 282.259C319.373 282.284 314.502 282.302 309.631 282.314C307.981 282.319 306.331 282.326 304.68 282.334C273.714 282.495 273.714 282.495 265.243 274.259C263.558 272.798 261.87 271.34 260.181 269.884C258.845 268.701 257.524 267.501 256.243 266.259C256.243 265.929 256.243 265.599 256.243 265.259Z" fill="#101A34"/>
    <path d="M1177.24 145.259C1177.57 145.259 1177.9 145.259 1178.24 145.259C1178.9 157.941 1179.36 170.559 1179.24 183.259C1172.31 183.259 1165.38 183.259 1158.24 183.259C1159.83 178.509 1161.61 174.323 1163.9 169.927C1164.25 169.25 1164.6 168.572 1164.96 167.875C1165.7 166.454 1166.44 165.035 1167.18 163.616C1168.31 161.438 1169.44 159.256 1170.57 157.073C1171.28 155.691 1172 154.309 1172.72 152.927C1173.22 151.946 1173.22 151.946 1173.74 150.945C1176.13 146.375 1176.13 146.375 1177.24 145.259Z" fill="#EFF4FC"/>
    <path d="M130.243 147.259C130.903 147.589 131.563 147.919 132.243 148.259C130.632 151.928 128.86 154.817 126.181 157.759C123.477 160.775 122.429 163.364 121.243 167.259C119.927 168.939 118.591 170.603 117.243 172.259C115.973 174.405 114.79 176.59 113.603 178.782C112.159 181.412 110.654 183.995 109.118 186.571C108.641 187.372 108.164 188.172 107.673 188.997C106.296 191.176 104.82 193.221 103.243 195.259C106.206 196.74 108.939 195.837 112.118 195.384C118.813 194.501 125.455 194.153 132.2 194.04C133.392 194.018 133.392 194.018 134.607 193.996C138.651 193.926 142.693 193.881 146.737 193.865C148.264 193.843 149.791 193.821 151.317 193.798C152.012 193.803 152.706 193.808 153.421 193.813C158.838 193.704 161.786 192.059 166.243 189.259C166.903 189.259 167.563 189.259 168.243 189.259C168.348 188.543 168.452 187.828 168.56 187.091C169.318 183.947 170.508 181.707 172.181 178.946C172.705 178.063 173.23 177.18 173.771 176.271C174.256 175.607 174.742 174.943 175.243 174.259C175.903 174.259 176.563 174.259 177.243 174.259C177.326 173.496 177.408 172.733 177.493 171.946C178.389 168.735 179.459 167.965 182.243 166.259C181.595 169.559 180.371 171.985 178.626 174.849C178.101 175.716 177.577 176.582 177.036 177.476C176.486 178.373 175.935 179.271 175.368 180.196C174.554 181.537 174.554 181.537 173.724 182.905C172.708 184.578 171.69 186.249 170.669 187.919C169.171 190.274 169.171 190.274 167.984 193.012C166.243 195.259 166.243 195.259 163.219 195.902C161.384 195.916 161.384 195.916 159.513 195.931C158.85 195.943 158.187 195.955 157.504 195.968C156.088 195.991 154.671 196.004 153.255 196.006C151.046 196.009 148.839 196.041 146.63 196.082C143.759 196.133 140.889 196.175 138.019 196.207C126.723 196.362 115.866 197.484 104.79 199.638C101.243 200.259 101.243 200.259 97.2432 200.259C98.6808 196.267 100.595 192.983 102.931 189.446C108.003 181.701 112.884 173.84 117.75 165.963C121.716 159.578 125.864 153.368 130.243 147.259Z" fill="#2355C9"/>
    <path d="M138.743 242.759C140.12 242.973 140.12 242.973 141.524 243.192C143.765 243.542 146.004 243.898 148.243 244.259C148.243 244.919 148.243 245.579 148.243 246.259C145.472 247.238 142.702 248.217 139.931 249.196C139.145 249.474 138.359 249.752 137.55 250.038C136.414 250.439 136.414 250.439 135.255 250.849C134.558 251.095 133.862 251.341 133.144 251.595C129.559 252.847 126.85 253.371 123.056 253.321C122.155 253.312 121.254 253.303 120.325 253.294C119.638 253.282 118.951 253.271 118.243 253.259C120.001 249.415 120.001 249.415 122.181 248.009C124.243 247.259 124.243 247.259 127.243 247.259C127.243 246.269 127.243 245.279 127.243 244.259C94.2432 244.259 61.2432 244.259 27.2432 244.259C27.2432 243.929 27.2432 243.599 27.2432 243.259C28.3493 243.249 29.4554 243.238 30.595 243.228C41.0129 243.13 51.4306 243.027 61.8484 242.919C67.2044 242.864 72.5604 242.811 77.9165 242.762C83.0842 242.714 88.2518 242.661 93.4195 242.606C95.3922 242.585 97.365 242.567 99.3378 242.55C102.098 242.526 104.859 242.496 107.619 242.464C108.437 242.458 109.255 242.453 110.097 242.447C134.82 242.126 134.82 242.126 138.743 242.759Z" fill="#0F182D"/>
    <path d="M1359.24 109.259C1390.26 109.259 1421.28 109.259 1453.24 109.259C1452.91 110.249 1452.58 111.239 1452.24 112.259C1451.12 112.254 1450.01 112.25 1448.85 112.245C1438.32 112.205 1427.78 112.175 1417.25 112.155C1411.83 112.145 1406.41 112.131 1401 112.108C1395.77 112.086 1390.55 112.074 1385.32 112.069C1383.32 112.065 1381.33 112.058 1379.33 112.047C1376.54 112.033 1373.75 112.031 1370.96 112.032C1370.13 112.025 1369.3 112.017 1368.45 112.01C1364.58 112.024 1361.52 112.042 1358.24 114.259C1358.57 112.609 1358.9 110.959 1359.24 109.259Z" fill="#1169FC"/>
    <path d="M1167.24 109.259C1180.44 109.259 1193.64 109.259 1207.24 109.259C1210.8 155.751 1210.8 155.751 1210.24 173.259C1209.58 173.259 1208.92 173.259 1208.24 173.259C1208.19 172.331 1208.13 171.404 1208.08 170.448C1207.87 166.974 1207.66 163.5 1207.44 160.026C1207.35 158.529 1207.26 157.032 1207.17 155.534C1207.04 153.369 1206.91 151.205 1206.78 149.04C1206.7 147.741 1206.62 146.443 1206.54 145.104C1206.33 142.346 1206.05 139.654 1205.69 136.917C1205.15 132.526 1205.8 130.331 1207.24 126.259C1206.58 126.259 1205.92 126.259 1205.24 126.259C1204.75 118.834 1204.75 118.834 1204.24 111.259C1185.93 110.764 1185.93 110.764 1167.24 110.259C1167.24 109.929 1167.24 109.599 1167.24 109.259Z" fill="#2D71F1"/>
    <path d="M1248.13 224.283C1249.54 224.36 1249.54 224.36 1250.97 224.439C1251.95 224.503 1252.92 224.568 1253.93 224.634C1254.92 224.691 1255.91 224.748 1256.92 224.806C1259.36 224.947 1261.8 225.099 1264.24 225.259C1264.24 224.929 1264.24 224.599 1264.24 224.259C1268.2 224.259 1272.16 224.259 1276.24 224.259C1276.24 224.919 1276.24 225.579 1276.24 226.259C1282.51 226.259 1288.78 226.259 1295.24 226.259C1292.78 228.726 1292.08 228.511 1288.69 228.518C1287.27 228.527 1287.27 228.527 1285.83 228.537C1284.8 228.533 1283.78 228.529 1282.72 228.525C1281.15 228.528 1281.15 228.528 1279.54 228.531C1277.31 228.532 1275.09 228.528 1272.86 228.52C1269.46 228.509 1266.05 228.52 1262.65 228.533C1260.49 228.531 1258.32 228.529 1256.16 228.525C1255.14 228.529 1254.13 228.533 1253.08 228.537C1252.12 228.531 1251.17 228.524 1250.19 228.518C1249.35 228.516 1248.51 228.515 1247.65 228.513C1244.91 228.224 1242.75 227.386 1240.24 226.259C1243.56 224.046 1244.32 224.051 1248.13 224.283Z" fill="#2D59C8"/>
    <path d="M1470.18 224.962C1473.56 225.449 1476.83 225.379 1480.24 225.259C1480.57 224.929 1480.9 224.599 1481.24 224.259C1483.91 224.118 1486.57 224.216 1489.24 224.259C1489.24 224.589 1489.24 224.919 1489.24 225.259C1492.18 225.286 1495.12 225.306 1498.06 225.321C1498.89 225.33 1499.72 225.338 1500.58 225.347C1501.78 225.352 1501.78 225.352 1503.01 225.356C1504.12 225.364 1504.12 225.364 1505.25 225.372C1507.45 225.334 1507.45 225.334 1510.24 224.259C1512.43 225.196 1512.43 225.196 1514.24 226.259C1507.99 228.486 1502.22 228.519 1495.62 228.454C1494.52 228.451 1493.42 228.448 1492.29 228.446C1488.79 228.434 1485.3 228.409 1481.81 228.384C1479.43 228.374 1477.05 228.365 1474.67 228.356C1468.86 228.334 1463.05 228.301 1457.24 228.259C1457.24 227.599 1457.24 226.939 1457.24 226.259C1461.98 224.582 1465.11 224.131 1470.18 224.962Z" fill="#315DC9"/>
    <path d="M130.243 147.259C130.903 147.589 131.563 147.919 132.243 148.259C130.632 151.928 128.86 154.817 126.181 157.759C123.477 160.775 122.429 163.364 121.243 167.259C119.927 168.939 118.591 170.603 117.243 172.259C115.973 174.405 114.79 176.59 113.603 178.782C112.159 181.412 110.654 183.995 109.118 186.571C108.641 187.372 108.164 188.172 107.673 188.997C106.296 191.176 104.82 193.221 103.243 195.259C102.253 194.929 101.263 194.599 100.243 194.259C107.931 181.658 115.628 169.069 123.681 156.696C124.229 155.853 124.778 155.01 125.344 154.141C129.1 148.402 129.1 148.402 130.243 147.259Z" fill="#134AC8"/>
    <path d="M1364.24 214.259C1364.9 214.589 1365.56 214.919 1366.24 215.259C1366.08 216.022 1365.91 216.785 1365.74 217.571C1365.15 220.295 1365.15 220.295 1365.24 223.259C1364.91 224.249 1364.58 225.239 1364.24 226.259C1366.22 226.259 1368.2 226.259 1370.24 226.259C1370.57 225.599 1370.9 224.939 1371.24 224.259C1372.19 224.424 1373.14 224.589 1374.12 224.759C1378.05 225.333 1381.9 225.276 1385.86 225.228C1388.73 225.265 1391.44 225.669 1394.24 226.259C1394.24 226.919 1394.24 227.579 1394.24 228.259C1383.35 228.259 1372.46 228.259 1361.24 228.259C1363.24 217.259 1363.24 217.259 1364.24 214.259Z" fill="#2E59C9"/>
    <path d="M220.243 2.25861C232.056 2.21232 243.869 2.17675 255.683 2.15498C261.168 2.14453 266.652 2.13036 272.137 2.10773C277.428 2.08604 282.719 2.07405 288.01 2.06885C290.031 2.06515 292.052 2.05792 294.073 2.04715C296.899 2.03268 299.724 2.03063 302.549 2.03156C303.809 2.02077 303.809 2.02077 305.095 2.00977C309 2.02371 310.918 2.04206 314.243 4.25861C312.263 4.58861 310.283 4.91861 308.243 5.25861C308.243 4.59861 308.243 3.93861 308.243 3.25861C279.203 3.25861 250.163 3.25861 220.243 3.25861C220.243 2.92861 220.243 2.59861 220.243 2.25861Z" fill="#2076FC"/>
    <path d="M103.243 210.259C103.243 211.249 103.243 212.239 103.243 213.259C109.843 213.259 116.443 213.259 123.243 213.259C123.243 213.589 123.243 213.919 123.243 214.259C122.599 214.284 121.954 214.309 121.291 214.335C118.316 214.452 115.342 214.574 112.368 214.696C110.848 214.755 110.848 214.755 109.298 214.816C103.612 215.053 98.0308 215.446 92.395 216.255C89.8451 216.26 88.4129 215.548 86.2432 214.259C88.4633 210.929 88.8117 210.785 92.4932 210.009C96.3328 209.252 99.4095 209.276 103.243 210.259Z" fill="#131D39"/>
    <path d="M700.243 109.259C723.673 109.259 747.103 109.259 771.243 109.259C771.243 109.589 771.243 109.919 771.243 110.259C748.143 110.259 725.043 110.259 701.243 110.259C701.903 110.589 702.563 110.919 703.243 111.259C702.583 114.889 701.923 118.519 701.243 122.259C699.243 118.259 699.243 118.259 700.243 109.259Z" fill="#22263B"/>
    <path d="M90.2432 212.259C89.2532 212.919 88.2632 213.579 87.2432 214.259C88.2332 214.919 89.2232 215.579 90.2432 216.259C85.9532 217.249 81.6632 218.239 77.2432 219.259C77.2432 219.919 77.2432 220.579 77.2432 221.259C75.5932 220.929 73.9432 220.599 72.2432 220.259C71.9132 219.269 71.5832 218.279 71.2432 217.259C70.5832 216.929 69.9232 216.599 69.2432 216.259C71.6158 215.582 73.9907 214.917 76.3682 214.259C77.0333 214.068 77.6985 213.877 78.3838 213.68C82.4418 212.566 86.04 212.049 90.2432 212.259Z" fill="#070D26"/>
    <path d="M1167.24 109.259C1180.44 109.259 1193.64 109.259 1207.24 109.259C1208.39 124.213 1208.39 124.213 1208.31 131.071C1208.3 131.776 1208.3 132.48 1208.29 133.206C1208.28 134.89 1208.26 136.575 1208.24 138.259C1207.91 138.259 1207.58 138.259 1207.24 138.259C1207.24 134.299 1207.24 130.339 1207.24 126.259C1206.58 126.259 1205.92 126.259 1205.24 126.259C1204.75 118.834 1204.75 118.834 1204.24 111.259C1185.93 110.764 1185.93 110.764 1167.24 110.259C1167.24 109.929 1167.24 109.599 1167.24 109.259Z" fill="#347EFB"/>
    <path d="M181.243 166.259C182.243 169.259 182.243 169.259 181.319 171.248C180.836 171.99 180.354 172.732 179.856 173.497C179.33 174.318 178.803 175.138 178.261 175.983C177.698 176.837 177.135 177.691 176.556 178.571C176.012 179.414 175.469 180.256 174.909 181.124C173.848 182.766 172.778 184.402 171.7 186.032C170.804 187.402 169.928 188.785 169.087 190.188C168.083 191.841 168.083 191.841 166.243 194.259C162.493 194.634 162.493 194.634 159.243 194.259C162.077 191.005 163.929 189.738 168.243 189.259C168.348 188.543 168.452 187.828 168.56 187.091C169.318 183.947 170.508 181.707 172.181 178.946C172.705 178.063 173.23 177.18 173.771 176.271C174.256 175.607 174.742 174.943 175.243 174.259C175.903 174.259 176.563 174.259 177.243 174.259C177.346 173.496 177.449 172.733 177.556 171.946C178.287 169.088 179.013 168.101 181.243 166.259Z" fill="#1050D5"/>
    <path d="M1107.24 220.259C1108.23 220.589 1109.22 220.919 1110.24 221.259C1110.24 222.249 1110.24 223.239 1110.24 224.259C1118.23 225.239 1126.22 225.762 1134.24 226.259C1134.24 226.589 1134.24 226.919 1134.24 227.259C1123.68 227.259 1113.12 227.259 1102.24 227.259C1102.57 225.939 1102.9 224.619 1103.24 223.259C1104.23 223.259 1105.22 223.259 1106.24 223.259C1106.57 222.269 1106.9 221.279 1107.24 220.259Z" fill="#0437B6"/>
    <path d="M458.243 210.259C459.233 210.589 460.223 210.919 461.243 211.259C461.156 213.176 461.048 215.093 460.931 217.009C460.873 218.076 460.815 219.143 460.755 220.243C460.243 223.259 460.243 223.259 457.243 227.259C467.473 227.259 477.703 227.259 488.243 227.259C488.243 227.589 488.243 227.919 488.243 228.259C477.353 228.259 466.463 228.259 455.243 228.259C456.368 218.134 456.368 218.134 457.306 214.196C457.571 213.065 457.571 213.065 457.841 211.911C457.974 211.366 458.106 210.821 458.243 210.259Z" fill="#42485E"/>
    <path d="M1250.24 109.259C1261.13 109.259 1272.02 109.259 1283.24 109.259C1282.58 113.549 1281.92 117.839 1281.24 122.259C1280.91 122.259 1280.58 122.259 1280.24 122.259C1280.24 118.629 1280.24 114.999 1280.24 111.259C1275.81 111.114 1271.37 111.025 1266.93 110.946C1265.67 110.904 1264.41 110.862 1263.1 110.819C1261.29 110.795 1261.29 110.795 1259.44 110.771C1258.33 110.744 1257.21 110.718 1256.06 110.691C1253.01 110.978 1253.01 110.978 1251.36 113.789C1250.99 114.604 1250.62 115.419 1250.24 116.259C1249.31 113.248 1249.2 112.392 1250.24 109.259Z" fill="#1268FB"/>
    <path d="M220.243 171.259C220.903 172.249 221.563 173.239 222.243 174.259C221.452 175.53 220.66 176.801 219.868 178.071C219.207 179.133 219.207 179.133 218.532 180.216C217.461 181.913 216.356 183.589 215.243 185.259C214.583 185.259 213.923 185.259 213.243 185.259C213.099 186.166 212.954 187.074 212.806 188.009C212.379 190.474 211.892 192.847 211.243 195.259C212.233 195.919 213.223 196.579 214.243 197.259C211.273 197.259 208.303 197.259 205.243 197.259C206.592 193.626 208.228 190.459 210.282 187.177C210.862 186.245 211.442 185.314 212.04 184.354C212.643 183.395 213.247 182.435 213.868 181.446C214.785 179.978 214.785 179.978 215.72 178.479C217.224 176.07 218.732 173.664 220.243 171.259Z" fill="#1752D8"/>
    <path d="M652.243 217.259C652.903 217.259 653.563 217.259 654.243 217.259C653.583 220.889 652.923 224.519 652.243 228.259C641.353 228.259 630.463 228.259 619.243 228.259C619.573 227.269 619.903 226.279 620.243 225.259C620.243 225.919 620.243 226.579 620.243 227.259C624.863 226.929 629.483 226.599 634.243 226.259C634.243 225.929 634.243 225.599 634.243 225.259C639.523 225.259 644.803 225.259 650.243 225.259C650.573 222.949 650.903 220.639 651.243 218.259C651.573 217.929 651.903 217.599 652.243 217.259Z" fill="#384159"/>
    <path d="M1181.24 208.259C1181.57 208.259 1181.9 208.259 1182.24 208.259C1183.01 212.982 1183.34 217.474 1183.24 222.259C1185.72 223.249 1185.72 223.249 1188.24 224.259C1188.24 224.589 1188.24 224.919 1188.24 225.259C1196.49 225.589 1204.74 225.919 1213.24 226.259C1213.24 226.589 1213.24 226.919 1213.24 227.259C1202.68 227.259 1192.12 227.259 1181.24 227.259C1181.24 220.989 1181.24 214.719 1181.24 208.259Z" fill="#0237BD"/>
    <path d="M1118.24 196.259C1118.57 196.259 1118.9 196.259 1119.24 196.259C1118.91 201.667 1117.52 204.81 1114.5 209.278C1113.32 211.139 1112.48 212.898 1111.68 214.946C1110.24 218.265 1108.71 220.628 1106.24 223.259C1105.58 223.259 1104.92 223.259 1104.24 223.259C1105.61 219.661 1107.21 216.329 1109.06 212.958C1109.6 211.982 1110.13 211.005 1110.68 209.999C1111.24 208.992 1111.8 207.984 1112.37 206.946C1112.93 205.92 1113.49 204.893 1114.08 203.835C1115.46 201.308 1116.85 198.783 1118.24 196.259Z" fill="#1A4FCB"/>
    <path d="M168.243 240.259C168.838 240.324 169.432 240.39 170.045 240.458C178.831 241.348 187.609 241.588 196.431 241.821C197.97 241.865 199.51 241.908 201.05 241.952C204.781 242.058 208.512 242.16 212.243 242.259C212.243 242.589 212.243 242.919 212.243 243.259C191.453 243.754 191.453 243.754 170.243 244.259C169.583 242.939 168.923 241.619 168.243 240.259Z" fill="#0B1322"/>
    <path d="M635.243 156.259C635.903 156.259 636.563 156.259 637.243 156.259C636.624 158.844 635.998 161.427 635.368 164.009C635.194 164.738 635.02 165.468 634.841 166.22C633.964 169.792 633.116 173.053 631.243 176.259C630.913 175.269 630.583 174.279 630.243 173.259C630.573 172.599 630.903 171.939 631.243 171.259C629.923 170.929 628.603 170.599 627.243 170.259C629.883 165.639 632.523 161.019 635.243 156.259Z" fill="#F2F3F5"/>
    <path d="M1472.24 114.259C1471.58 115.579 1470.92 116.899 1470.24 118.259C1469.25 118.259 1468.26 118.259 1467.24 118.259C1467.02 118.898 1466.79 119.538 1466.56 120.196C1465.05 123.703 1463.24 126.953 1461.36 130.271C1460.62 131.582 1459.92 132.912 1459.24 134.259C1458.58 134.259 1457.92 134.259 1457.24 134.259C1456.91 135.249 1456.58 136.239 1456.24 137.259C1456.57 129.769 1459.97 123.684 1465.13 118.286C1469.68 114.259 1469.68 114.259 1472.24 114.259Z" fill="#2D74FB"/>
    <path d="M1312.24 109.259C1323.13 109.259 1334.02 109.259 1345.24 109.259C1345.24 109.589 1345.24 109.919 1345.24 110.259C1344.28 110.289 1344.28 110.289 1343.29 110.319C1340.32 110.415 1337.34 110.524 1334.37 110.634C1333.35 110.665 1332.34 110.696 1331.3 110.728C1324.77 110.979 1318.61 111.757 1312.24 113.259C1311.91 114.249 1311.58 115.239 1311.24 116.259C1311.57 113.949 1311.9 111.639 1312.24 109.259Z" fill="#2678FC"/>
    <path d="M130.243 147.259C130.903 147.589 131.563 147.919 132.243 148.259C130.632 151.928 128.86 154.817 126.181 157.759C123.495 160.75 122.332 163.355 121.243 167.259C120.583 167.919 119.923 168.579 119.243 169.259C118.253 168.929 117.263 168.599 116.243 168.259C118.387 164.945 120.534 161.633 122.681 158.321C123.292 157.376 123.904 156.43 124.534 155.456C125.117 154.557 125.701 153.658 126.302 152.731C126.841 151.899 127.381 151.066 127.936 150.208C129.243 148.259 129.243 148.259 130.243 147.259Z" fill="#0D4CD3"/>
    <path d="M312.243 268.259C318.993 270.009 318.993 270.009 321.243 272.259C319.806 274.384 319.806 274.384 317.243 276.259C314.115 276.011 311.228 275.203 308.243 274.259C308.243 273.269 308.243 272.279 308.243 271.259C309.233 271.259 310.223 271.259 311.243 271.259C311.573 270.269 311.903 269.279 312.243 268.259Z" fill="#E7E9EB"/>
    <path d="M112.243 216.259C112.243 216.589 112.243 216.919 112.243 217.259C110.464 217.332 110.464 217.332 108.649 217.407C98.0934 217.882 87.7044 218.773 77.2432 220.259C85.3033 212.199 102.037 215.414 112.243 216.259Z" fill="#B1B4BD"/>
    <path d="M713.243 192.259C733.538 192.754 733.538 192.754 754.243 193.259C754.243 193.589 754.243 193.919 754.243 194.259C753.108 194.284 751.972 194.309 750.802 194.335C746.592 194.429 742.382 194.529 738.173 194.631C736.35 194.674 734.527 194.716 732.705 194.756C730.086 194.814 727.467 194.878 724.849 194.942C724.033 194.959 723.217 194.976 722.377 194.993C719.101 195.079 716.371 195.216 713.243 196.259C713.243 194.939 713.243 193.619 713.243 192.259Z" fill="#EBECEE"/>
    <path d="M134.243 242.259C134.243 242.589 134.243 242.919 134.243 243.259C128.359 244.116 122.684 244.385 116.743 244.322C115.921 244.317 115.098 244.313 114.251 244.308C112.248 244.296 110.246 244.278 108.243 244.259C108.243 243.929 108.243 243.599 108.243 243.259C117.223 241.583 125.182 240.447 134.243 242.259Z" fill="#1C2335"/>
    <path d="M1445.24 179.259C1447.4 186.52 1445.19 193.534 1442.24 200.259C1441.58 200.919 1440.92 201.579 1440.24 202.259C1440.89 194.352 1443.11 186.867 1445.24 179.259Z" fill="#3C73E4"/>
    <path d="M99.2432 195.259C100.109 195.444 100.976 195.63 101.868 195.821C105.301 196.266 107.866 195.873 111.243 195.259C111.903 195.589 112.563 195.919 113.243 196.259C113.243 196.919 113.243 197.579 113.243 198.259C107.963 198.919 102.683 199.579 97.2432 200.259C97.9032 198.609 98.5632 196.959 99.2432 195.259Z" fill="#2650B9"/>
    <path d="M1368.24 195.259C1369.23 195.259 1370.22 195.259 1371.24 195.259C1370.93 197.009 1370.62 198.759 1370.31 200.509C1370.13 201.483 1369.96 202.458 1369.78 203.462C1369.34 205.756 1368.84 208.002 1368.24 210.259C1367.58 210.259 1366.92 210.259 1366.24 210.259C1366.02 204.84 1366.78 200.484 1368.24 195.259Z" fill="#1650D3"/>
    <path d="M1344.24 111.259C1344.57 111.259 1344.9 111.259 1345.24 111.259C1344.86 118.374 1343.85 124.613 1341.24 131.259C1340.91 131.259 1340.58 131.259 1340.24 131.259C1339.79 124.628 1341.32 118.589 1343.24 112.259C1343.57 111.929 1343.9 111.599 1344.24 111.259Z" fill="#317CFC"/>
    <path d="M1158.24 183.259C1165.17 183.259 1172.1 183.259 1179.24 183.259C1178.91 184.249 1178.58 185.239 1178.24 186.259C1174.61 186.259 1170.98 186.259 1167.24 186.259C1167.24 185.929 1167.24 185.599 1167.24 185.259C1164.27 184.929 1161.3 184.599 1158.24 184.259C1158.24 183.929 1158.24 183.599 1158.24 183.259Z" fill="#0347D4"/>
    <path d="M97.2432 209.259C100.213 209.754 100.213 209.754 103.243 210.259C103.243 211.249 103.243 212.239 103.243 213.259C109.843 213.259 116.443 213.259 123.243 213.259C123.243 213.589 123.243 213.919 123.243 214.259C119.806 214.288 116.368 214.306 112.931 214.321C111.466 214.334 111.466 214.334 109.972 214.347C109.034 214.35 108.096 214.353 107.13 214.356C106.266 214.362 105.402 214.367 104.511 214.372C102.243 214.259 102.243 214.259 99.2432 213.259C99.2432 212.599 99.2432 211.939 99.2432 211.259C98.5832 210.599 97.9232 209.939 97.2432 209.259Z" fill="#3C445C"/>
    <path d="M220.243 171.259C220.903 172.249 221.563 173.239 222.243 174.259C221.452 175.53 220.66 176.801 219.868 178.071C219.207 179.133 219.207 179.133 218.532 180.216C217.461 181.913 216.356 183.589 215.243 185.259C214.583 185.259 213.923 185.259 213.243 185.259C213.243 185.919 213.243 186.579 213.243 187.259C212.583 187.259 211.923 187.259 211.243 187.259C212.938 183.732 214.888 180.382 216.868 177.009C217.5 175.931 218.131 174.853 218.782 173.743C219.505 172.513 219.505 172.513 220.243 171.259Z" fill="#1B5BE2"/>
    <path d="M859.243 168.259C861.665 171.678 861.279 174.415 860.669 178.353C860.18 180.543 859.433 182.355 858.243 184.259C857.583 184.259 856.923 184.259 856.243 184.259C856.376 183.607 856.509 182.954 856.646 182.282C857.588 177.618 858.501 172.96 859.243 168.259Z" fill="#1C243D"/>
    <path d="M1305.24 137.259C1305.57 137.259 1305.9 137.259 1306.24 137.259C1307.85 143.832 1306.28 148.905 1304.24 155.259C1303.58 155.259 1302.92 155.259 1302.24 155.259C1302.92 149.176 1303.98 143.246 1305.24 137.259Z" fill="#2468F2"/>
    <path d="M256.243 265.259C260.759 265.183 264.834 265.157 269.243 266.259C269.243 266.589 269.243 266.919 269.243 267.259C268.294 267.548 267.346 267.837 266.368 268.134C263.191 269.027 263.191 269.027 261.243 271.259C259.593 269.279 257.943 267.299 256.243 265.259Z" fill="#2B2E42"/>
    <path d="M1266.24 109.259C1271.85 109.259 1277.46 109.259 1283.24 109.259C1282.58 113.549 1281.92 117.839 1281.24 122.259C1280.91 122.259 1280.58 122.259 1280.24 122.259C1280.24 118.629 1280.24 114.999 1280.24 111.259C1273.31 110.764 1273.31 110.764 1266.24 110.259C1266.24 109.929 1266.24 109.599 1266.24 109.259Z" fill="#1E6FFB"/>
    <path d="M765.243 184.259C765.243 184.919 765.243 185.579 765.243 186.259C765.903 186.589 766.563 186.919 767.243 187.259C765.644 187.958 764.039 188.643 762.431 189.321C761.537 189.704 760.644 190.087 759.724 190.481C757.243 191.259 757.243 191.259 754.243 190.259C754.903 190.259 755.563 190.259 756.243 190.259C756.243 189.599 756.243 188.939 756.243 188.259C757.563 188.589 758.883 188.919 760.243 189.259C760.243 188.269 760.243 187.279 760.243 186.259C763.243 184.259 763.243 184.259 765.243 184.259Z" fill="#1D2439"/>
    <path d="M1374.24 172.259C1376.24 175.259 1376.24 175.259 1376.07 177.669C1375.88 178.544 1375.69 179.419 1375.49 180.321C1375.22 181.638 1375.22 181.638 1374.95 182.981C1374.24 185.259 1374.24 185.259 1372.24 187.259C1370.93 183.6 1371.59 181.179 1372.68 177.509C1372.97 176.524 1373.26 175.539 1373.55 174.524C1373.78 173.777 1374.01 173.029 1374.24 172.259Z" fill="#195AE2"/>
    <path d="M556.243 156.259C556.903 156.259 557.563 156.259 558.243 156.259C558.573 159.889 558.903 163.519 559.243 167.259C557.923 166.929 556.603 166.599 555.243 166.259C555.573 162.959 555.903 159.659 556.243 156.259Z" fill="#D1D3DC"/>
    <path d="M1354.24 127.259C1354.57 127.919 1354.9 128.579 1355.24 129.259C1355.9 129.589 1356.56 129.919 1357.24 130.259C1356.91 130.919 1356.58 131.579 1356.24 132.259C1363.17 132.754 1363.17 132.754 1370.24 133.259C1370.24 133.589 1370.24 133.919 1370.24 134.259C1364.63 134.259 1359.02 134.259 1353.24 134.259C1353.57 131.949 1353.9 129.639 1354.24 127.259Z" fill="#1F6DFA"/>
    <path d="M1508.24 224.259C1510.25 224.546 1512.25 224.877 1514.24 225.259C1513.91 225.919 1513.58 226.579 1513.24 227.259C1510.45 227.313 1507.66 227.352 1504.87 227.384C1504.07 227.401 1503.28 227.417 1502.46 227.435C1500.39 227.452 1498.31 227.362 1496.24 227.259C1495.58 226.599 1494.92 225.939 1494.24 225.259C1495.17 225.27 1496.1 225.282 1497.05 225.294C1498.85 225.307 1498.85 225.307 1500.68 225.321C1502.47 225.339 1502.47 225.339 1504.3 225.356C1507.13 225.598 1507.13 225.598 1508.24 224.259Z" fill="#0841C5"/>
    <path d="M98.2432 4.25892C95.2732 4.91892 92.3032 5.57892 89.2432 6.25892C89.2432 6.91892 89.2432 7.57892 89.2432 8.25892C85.7137 9.92562 83.9604 10.3948 80.2432 9.25892C82.0131 8.44456 83.7842 7.6325 85.5557 6.82142C86.5418 6.36896 87.5279 5.9165 88.5439 5.45033C93.7743 3.14171 93.7743 3.14171 98.2432 4.25892Z" fill="#3A3F53"/>
    <path d="M29.2432 246.259C32.8732 246.259 36.5032 246.259 40.2432 246.259C40.2432 246.919 40.2432 247.579 40.2432 248.259C41.5632 248.259 42.8832 248.259 44.2432 248.259C44.2432 248.919 44.2432 249.579 44.2432 250.259C39.2432 249.259 34.2432 248.259 29.2432 247.259C29.2432 246.929 29.2432 246.599 29.2432 246.259Z" fill="#E8E8EB"/>
    <path d="M554.243 166.259C555.43 169.969 555.589 173.387 555.243 177.259C553.243 179.696 553.243 179.696 551.243 181.259C551.795 176.02 552.672 171.285 554.243 166.259Z" fill="#BEC2C9"/>
    <path d="M916.243 149.259C916.573 149.259 916.903 149.259 917.243 149.259C917.403 158.675 917.403 158.675 916.243 162.259C915.253 162.919 914.263 163.579 913.243 164.259C913.795 159.02 914.672 154.285 916.243 149.259Z" fill="#2C3349"/>
    <path d="M1146.24 146.259C1146.57 146.259 1146.9 146.259 1147.24 146.259C1147.61 150.556 1146.63 152.719 1144.24 156.259C1143.91 156.919 1143.58 157.579 1143.24 158.259C1142.58 158.259 1141.92 158.259 1141.24 158.259C1141.24 158.919 1141.24 159.579 1141.24 160.259C1140.58 159.929 1139.92 159.599 1139.24 159.259C1142.71 152.824 1142.71 152.824 1146.24 146.259Z" fill="#165EEE"/>
    <path d="M1472.24 114.259C1471.58 115.579 1470.92 116.899 1470.24 118.259C1469.25 118.259 1468.26 118.259 1467.24 118.259C1466.58 119.909 1465.92 121.559 1465.24 123.259C1464.25 123.259 1463.26 123.259 1462.24 123.259C1464.34 119.293 1467.27 114.259 1472.24 114.259Z" fill="#1765FA"/>
    <path d="M168.243 189.259C167.583 190.909 166.923 192.559 166.243 194.259C163.933 194.259 161.623 194.259 159.243 194.259C163.921 189.259 163.921 189.259 168.243 189.259Z" fill="#0747C3"/>
    <path d="M1090.24 135.259C1091.56 135.589 1092.88 135.919 1094.24 136.259C1093.58 136.836 1092.92 137.414 1092.24 138.009C1089.8 140.255 1089.8 140.255 1090.24 144.259C1089.58 144.259 1088.92 144.259 1088.24 144.259C1087.91 145.249 1087.58 146.239 1087.24 147.259C1087.36 145.82 1087.49 144.383 1087.62 142.946C1087.69 142.146 1087.76 141.345 1087.83 140.521C1088.24 138.259 1088.24 138.259 1090.24 135.259Z" fill="#C5C8D0"/>
    <path d="M168.243 240.259C171.873 240.589 175.503 240.919 179.243 241.259C178.913 241.919 178.583 242.579 178.243 243.259C175.595 243.852 172.951 244.001 170.243 244.259C169.583 242.939 168.923 241.619 168.243 240.259Z" fill="#121B31"/>
    <path d="M1251.43 224.696C1252.18 224.748 1252.93 224.8 1253.7 224.854C1255.55 224.984 1257.4 225.12 1259.24 225.259C1259.24 225.589 1259.24 225.919 1259.24 226.259C1256.45 226.48 1253.66 226.686 1250.87 226.884C1250.07 226.948 1249.28 227.012 1248.46 227.079C1246.39 227.219 1244.32 227.246 1242.24 227.259C1241.58 226.599 1240.92 225.939 1240.24 225.259C1244.07 223.982 1247.48 224.396 1251.43 224.696Z" fill="#0949C2"/>
    <path d="M1118.24 196.259C1118.57 196.259 1118.9 196.259 1119.24 196.259C1118.78 200.315 1118.36 203.725 1116.24 207.259C1115.25 207.259 1114.26 207.259 1113.24 207.259C1114.69 203.468 1116.39 199.871 1118.24 196.259Z" fill="#1955D7"/>
    <path d="M1210.24 175.259C1210.57 175.259 1210.9 175.259 1211.24 175.259C1211.57 181.529 1211.9 187.799 1212.24 194.259C1209.13 189.586 1209.14 186.558 1209.68 181.009C1209.78 179.931 1209.88 178.853 1209.99 177.743C1210.07 176.923 1210.16 176.103 1210.24 175.259Z" fill="#417BE4"/>
    <path d="M688.243 159.259C688.903 159.259 689.563 159.259 690.243 159.259C691.276 162.047 691.288 163.127 690.306 166.009C689.955 166.751 689.604 167.494 689.243 168.259C688.583 167.929 687.923 167.599 687.243 167.259C687.118 161.509 687.118 161.509 688.243 159.259Z" fill="#1F253C"/>
    <path d="M1455.24 138.259C1455.9 138.589 1456.56 138.919 1457.24 139.259C1456.58 142.889 1455.92 146.519 1455.24 150.259C1454.58 149.929 1453.92 149.599 1453.24 149.259C1454.12 141.634 1454.12 141.634 1455.24 138.259Z" fill="#3474F6"/>
    <path d="M617.243 138.259C617.903 139.579 618.563 140.899 619.243 142.259C617.593 143.909 615.943 145.559 614.243 147.259C613.583 146.929 612.923 146.599 612.243 146.259C613.893 143.619 615.543 140.979 617.243 138.259Z" fill="#161E34"/>
    <path d="M146.243 120.259C146.903 121.249 147.563 122.239 148.243 123.259C146.593 125.899 144.943 128.539 143.243 131.259C142.253 130.929 141.263 130.599 140.243 130.259C142.223 126.959 144.203 123.659 146.243 120.259Z" fill="#175CEB"/>
    <path d="M1163.24 116.259C1163.57 116.259 1163.9 116.259 1164.24 116.259C1164.6 120.114 1164.52 121.836 1162.37 125.134C1161.67 125.835 1160.97 126.536 1160.24 127.259C1159.58 127.259 1158.92 127.259 1158.24 127.259C1159.47 123.216 1160.87 119.766 1163.24 116.259Z" fill="#1565FA"/>
    <path d="M126.243 243.259C128.368 243.205 130.493 243.166 132.618 243.134C133.802 243.111 134.985 243.087 136.204 243.063C139.243 243.259 139.243 243.259 141.243 245.259C137.983 246.346 136.013 246.246 132.618 245.946C131.636 245.868 130.654 245.789 129.642 245.708C128.85 245.56 128.059 245.412 127.243 245.259C126.913 244.599 126.583 243.939 126.243 243.259Z" fill="#080E27"/>
    <path d="M1230.24 213.259C1232.24 216.259 1232.24 216.259 1233.18 218.259C1234.29 220.342 1235.51 221.681 1237.24 223.259C1236.25 223.259 1235.26 223.259 1234.24 223.259C1231.49 220.509 1231.49 220.509 1229.24 217.259C1229.43 214.884 1229.43 214.884 1230.24 213.259Z" fill="#0949CD"/>
    <path d="M75.2432 215.259C74.9132 216.579 74.5832 217.899 74.2432 219.259C75.2332 219.259 76.2232 219.259 77.2432 219.259C77.2432 219.919 77.2432 220.579 77.2432 221.259C75.5932 220.929 73.9432 220.599 72.2432 220.259C71.9132 219.269 71.5832 218.279 71.2432 217.259C70.5832 216.929 69.9232 216.599 69.2432 216.259C72.2432 215.259 72.2432 215.259 75.2432 215.259Z" fill="#22293F"/>
    <path d="M105.243 187.259C105.903 187.259 106.563 187.259 107.243 187.259C105.493 193.009 105.493 193.009 103.243 195.259C102.253 194.929 101.263 194.599 100.243 194.259C101.027 193.087 101.82 191.921 102.618 190.759C103.059 190.109 103.5 189.459 103.954 188.79C104.592 188.032 104.592 188.032 105.243 187.259Z" fill="#0E42C0"/>
    <path d="M181.243 166.259C182.243 169.259 182.243 169.259 181.247 171.302C180.771 172.009 180.296 172.717 179.806 173.446C179.333 174.162 178.859 174.877 178.372 175.614C178 176.157 177.627 176.7 177.243 177.259C176.583 176.269 175.923 175.279 175.243 174.259C175.903 174.259 176.563 174.259 177.243 174.259C177.346 173.496 177.449 172.733 177.556 171.946C178.287 169.088 179.013 168.101 181.243 166.259Z" fill="#1257DD"/>
    <path d="M977.243 149.259C979.81 153.109 979.076 154.844 978.243 159.259C977.253 158.929 976.263 158.599 975.243 158.259C975.903 155.289 976.563 152.319 977.243 149.259Z" fill="#1B213A"/>
    <path d="M153.243 109.259C153.903 110.249 154.563 111.239 155.243 112.259C154.253 112.589 153.263 112.919 152.243 113.259C152.161 114.043 152.078 114.826 151.993 115.634C151.746 116.5 151.498 117.366 151.243 118.259C149.263 119.249 149.263 119.249 147.243 120.259C149.223 116.629 151.203 112.999 153.243 109.259Z" fill="#1C61EF"/>
    <path d="M344.243 21.2588C347.875 22.4694 348.672 23.7957 350.931 26.8213C351.553 27.6476 352.176 28.4739 352.817 29.3252C353.288 29.9633 353.758 30.6014 354.243 31.2588C353.913 31.9188 353.583 32.5788 353.243 33.2588C351.09 31.144 349.043 28.9681 347.056 26.6963C346.526 26.0969 345.996 25.4975 345.45 24.8799C344.243 23.2588 344.243 23.2588 344.243 21.2588Z" fill="#3382FC"/>
    <path d="M251.056 246.696C252.031 246.798 253.007 246.9 254.013 247.005C254.749 247.088 255.485 247.172 256.243 247.259C256.243 247.589 256.243 247.919 256.243 248.259C250.666 249.326 245.849 249.085 240.243 248.259C240.243 247.929 240.243 247.599 240.243 247.259C244.036 246.322 247.18 246.276 251.056 246.696Z" fill="#1D243B"/>
    <path d="M144.868 244.134C146.539 244.196 146.539 244.196 148.243 244.259C148.243 244.919 148.243 245.579 148.243 246.259C145.933 246.919 143.623 247.579 141.243 248.259C140.583 247.599 139.923 246.939 139.243 246.259C141.243 244.259 141.243 244.259 144.868 244.134Z" fill="#1A1F34"/>
    <path d="M462.243 194.259C463.233 194.259 464.223 194.259 465.243 194.259C464.913 196.899 464.583 199.539 464.243 202.259C463.253 202.259 462.263 202.259 461.243 202.259C461.573 199.619 461.903 196.979 462.243 194.259Z" fill="#1A223B"/>
    <path d="M121.243 160.259C121.573 160.259 121.903 160.259 122.243 160.259C122.612 165.797 122.612 165.797 120.743 168.134C120.001 168.691 120.001 168.691 119.243 169.259C118.253 168.929 117.263 168.599 116.243 168.259C117.051 166.923 117.865 165.59 118.681 164.259C119.133 163.516 119.586 162.774 120.052 162.009C120.445 161.431 120.838 160.854 121.243 160.259Z" fill="#1954D2"/>
    <path d="M1443.24 129.259C1440.2 130.954 1437.41 131.754 1433.99 132.384C1432.66 132.636 1432.66 132.636 1431.29 132.892C1430.61 133.013 1429.94 133.134 1429.24 133.259C1433.89 128.114 1436.55 127.889 1443.24 129.259Z" fill="#1D6AFB"/>
    <path d="M1308.24 124.259C1310.24 127.259 1310.24 127.259 1310.06 130.759C1309.28 134.102 1308.93 135.274 1306.24 137.259C1306.76 132.879 1307.3 128.571 1308.24 124.259Z" fill="#3E80FA"/>
    <path d="M1364.24 214.259C1364.9 214.589 1365.56 214.919 1366.24 215.259C1366.08 216.022 1365.91 216.785 1365.74 217.571C1365.15 220.295 1365.15 220.295 1365.24 223.259C1364.25 223.589 1363.26 223.919 1362.24 224.259C1362.7 220.789 1363.13 217.585 1364.24 214.259Z" fill="#0A43C6"/>
    <path d="M1299.24 162.259C1299.9 162.919 1300.56 163.579 1301.24 164.259C1300.91 170.437 1300.91 170.437 1298.68 173.196C1298.21 173.547 1297.73 173.898 1297.24 174.259C1298.24 165.687 1298.24 165.687 1299.24 162.259Z" fill="#3673EA"/>
    <path d="M749.243 159.259C749.903 160.249 750.563 161.239 751.243 162.259C749.593 163.909 747.943 165.559 746.243 167.259C745.253 166.929 744.263 166.599 743.243 166.259C744.048 165.475 744.852 164.691 745.681 163.884C748.23 161.539 748.23 161.539 749.243 159.259Z" fill="#161F38"/>
    <path d="M535.243 110.259C535.573 110.259 535.903 110.259 536.243 110.259C537.442 115.708 537.157 118.48 534.243 123.259C533.17 119.987 533.351 117.829 534.181 114.509C534.375 113.71 534.57 112.91 534.771 112.087C534.927 111.484 535.083 110.88 535.243 110.259Z" fill="#363E54"/>
    <path d="M56.2432 32.2588C56.9932 33.8213 56.9932 33.8213 57.2432 36.2588C56.1123 38.7617 54.7218 40.9289 53.2432 43.2588C52.5832 43.2588 51.9232 43.2588 51.2432 43.2588C52.4684 39.206 53.942 35.8152 56.2432 32.2588Z" fill="#232841"/>
    <path d="M315.243 247.259C319.203 247.589 323.163 247.919 327.243 248.259C327.243 248.589 327.243 248.919 327.243 249.259C318.672 250.545 318.672 250.545 315.243 249.259C315.243 248.599 315.243 247.939 315.243 247.259Z" fill="#181D2F"/>
    <path d="M1295.24 179.259C1295.57 179.259 1295.9 179.259 1296.24 179.259C1296.32 180.883 1296.38 182.508 1296.43 184.134C1296.47 185.039 1296.5 185.944 1296.54 186.876C1296.44 187.662 1296.34 188.449 1296.24 189.259C1295.25 189.919 1294.26 190.579 1293.24 191.259C1294.24 182.687 1294.24 182.687 1295.24 179.259Z" fill="#3C74E6"/>
    <path d="M175.243 178.259C175.927 179.993 175.927 179.993 176.243 182.259C175.028 184.399 175.028 184.399 173.306 186.509C172.74 187.215 172.174 187.922 171.591 188.649C170.924 189.446 170.924 189.446 170.243 190.259C169.913 189.599 169.583 188.939 169.243 188.259C170.458 185.876 170.458 185.876 172.181 183.134C173.03 181.769 173.03 181.769 173.896 180.376C174.34 179.677 174.785 178.979 175.243 178.259Z" fill="#D6E5F9"/>
    <path d="M1083.24 160.259C1083.9 160.259 1084.56 160.259 1085.24 160.259C1084.63 167.766 1084.63 167.766 1082.68 170.259C1082.21 170.589 1081.73 170.919 1081.24 171.259C1082.24 163.83 1082.24 163.83 1083.24 160.259Z" fill="#CCCFD6"/>
    <path d="M635.243 156.259C635.903 156.259 636.563 156.259 637.243 156.259C636.583 158.899 635.923 161.539 635.243 164.259C633.923 164.589 632.603 164.919 631.243 165.259C632.442 162.176 633.72 159.196 635.243 156.259Z" fill="#BCC1CC"/>
    <path d="M605.243 156.259C605.903 157.579 606.563 158.899 607.243 160.259C605.593 161.909 603.943 163.559 602.243 165.259C601.913 164.599 601.583 163.939 601.243 163.259C602.021 161.532 602.021 161.532 603.181 159.634C603.861 158.52 604.542 157.406 605.243 156.259Z" fill="#161D36"/>
    <path d="M22.2432 158.259C23.844 162.261 22.536 165.304 21.2432 169.259C20.5832 169.259 19.9232 169.259 19.2432 169.259C19.5732 166.619 19.9032 163.979 20.2432 161.259C20.9032 161.259 21.5632 161.259 22.2432 161.259C22.2432 160.269 22.2432 159.279 22.2432 158.259Z" fill="#212840"/>
    <path d="M1516.24 133.259C1516.57 134.249 1516.9 135.239 1517.24 136.259C1513.28 135.929 1509.32 135.599 1505.24 135.259C1509.46 133.151 1511.64 133.082 1516.24 133.259Z" fill="#085BF6"/>
    <path d="M533.243 124.259C534.844 128.261 533.536 131.304 532.243 135.259C531.583 135.259 530.923 135.259 530.243 135.259C530.573 132.619 530.903 129.979 531.243 127.259C531.903 127.259 532.563 127.259 533.243 127.259C533.243 126.269 533.243 125.279 533.243 124.259Z" fill="#242B41"/>
    <path d="M702.243 111.259C703.66 115.509 702.436 117.977 701.243 122.259C699.623 119.687 699.199 118.582 699.618 115.509C699.824 114.766 700.03 114.024 700.243 113.259C700.903 113.259 701.563 113.259 702.243 113.259C702.243 112.599 702.243 111.939 702.243 111.259Z" fill="#141F38"/>
    <path d="M298.243 2.25879C300.347 2.20477 302.451 2.16599 304.556 2.13379C306.313 2.09898 306.313 2.09898 308.106 2.06348C311.243 2.25879 311.243 2.25879 314.243 4.25879C312.263 4.58879 310.283 4.91879 308.243 5.25879C308.243 4.59879 308.243 3.93879 308.243 3.25879C304.943 3.25879 301.643 3.25879 298.243 3.25879C298.243 2.92879 298.243 2.59879 298.243 2.25879Z" fill="#3F8EFC"/>
    <path d="M269.243 267.258C269.243 267.918 269.243 268.578 269.243 269.258C266.243 271.258 266.243 271.258 264.056 270.883C263.458 270.677 262.859 270.471 262.243 270.258C262.243 269.598 262.243 268.938 262.243 268.258C264.706 267.027 266.523 267.187 269.243 267.258Z" fill="#060B1D"/>
    <path d="M1446.24 221.259C1447.01 221.568 1447.77 221.878 1448.56 222.196C1450.43 222.938 1452.33 223.621 1454.24 224.259C1455.23 224.589 1456.22 224.919 1457.24 225.259C1456.91 225.589 1456.58 225.919 1456.24 226.259C1452.15 225.879 1449.7 225.566 1446.24 223.259C1446.24 222.599 1446.24 221.939 1446.24 221.259Z" fill="#0B48C7"/>
    <path d="M1112.24 207.259C1113.23 207.259 1114.22 207.259 1115.24 207.259C1114.95 207.816 1114.67 208.373 1114.37 208.946C1113.2 211.344 1112.21 213.775 1111.24 216.259C1110.91 216.259 1110.58 216.259 1110.24 216.259C1111.12 209.509 1111.12 209.509 1112.24 207.259Z" fill="#0D45C6"/>
    <path d="M1448.24 121.259C1448.9 121.259 1449.56 121.259 1450.24 121.259C1449.91 123.569 1449.58 125.879 1449.24 128.259C1447.59 128.589 1445.94 128.919 1444.24 129.259C1444.24 128.599 1444.24 127.939 1444.24 127.259C1445.23 126.599 1446.22 125.939 1447.24 125.259C1447.97 123.2 1447.97 123.2 1448.24 121.259Z" fill="#236FFA"/>
    <path d="M74.2432 13.2588C75.2332 13.9188 76.2232 14.5788 77.2432 15.2588C74.9307 17.3213 74.9307 17.3213 72.2432 19.2588C71.2532 18.9288 70.2632 18.5988 69.2432 18.2588C70.8932 16.6088 72.5432 14.9588 74.2432 13.2588Z" fill="#17213C"/>
    <path d="M29.2432 233.259C26.2732 234.579 23.3032 235.899 20.2432 237.259C19.5832 236.599 18.9232 235.939 18.2432 235.259C24.7432 232.134 24.7432 232.134 29.2432 233.259Z" fill="#20273E"/>
    <path d="M1523.24 221.259C1523.24 221.919 1523.24 222.579 1523.24 223.259C1520.89 224.688 1519.76 225.345 1516.99 224.884C1516.42 224.678 1515.84 224.471 1515.24 224.259C1518.3 221.635 1518.97 221.259 1523.24 221.259Z" fill="#0C4DC9"/>
    <path d="M209.243 192.259C209.903 193.249 210.563 194.239 211.243 195.259C212.233 195.919 213.223 196.579 214.243 197.259C211.273 197.259 208.303 197.259 205.243 197.259C205.243 196.599 205.243 195.939 205.243 195.259C206.563 194.929 207.883 194.599 209.243 194.259C209.243 193.599 209.243 192.939 209.243 192.259Z" fill="#0C4AD5"/>
    <path d="M1443.24 192.259C1443.93 193.884 1443.93 193.884 1444.24 196.259C1442.81 199.509 1442.81 199.509 1441.24 202.259C1440.26 199.206 1440.26 197.311 1441.24 194.259C1441.9 194.259 1442.56 194.259 1443.24 194.259C1443.24 193.599 1443.24 192.939 1443.24 192.259Z" fill="#3167DB"/>
    <path d="M1076.24 188.259C1076.9 188.259 1077.56 188.259 1078.24 188.259C1077.63 194.782 1077.63 194.782 1075.68 197.196C1075.21 197.547 1074.73 197.898 1074.24 198.259C1074.78 194.882 1075.35 191.562 1076.24 188.259Z" fill="#C7CAD1"/>
    <path d="M1332.24 157.259C1332.9 157.259 1333.56 157.259 1334.24 157.259C1333.58 160.889 1332.92 164.519 1332.24 168.259C1330.24 164.259 1330.24 164.259 1331.12 160.509C1331.49 159.436 1331.86 158.364 1332.24 157.259Z" fill="#165DEC"/>
    <path d="M229.243 158.259C229.903 158.259 230.563 158.259 231.243 158.259C230.63 161.221 229.989 162.639 228.243 165.259C227.583 165.259 226.923 165.259 226.243 165.259C226.993 160.509 226.993 160.509 229.243 158.259Z" fill="#0C52E5"/>
    <path d="M786.243 142.259C786.573 142.259 786.903 142.259 787.243 142.259C787.324 143.695 787.382 145.133 787.431 146.571C787.483 147.772 787.483 147.772 787.536 148.997C787.181 151.737 786.35 152.55 784.243 154.259C785.243 145.687 785.243 145.687 786.243 142.259Z" fill="#C0C2CB"/>
    <path d="M1357.24 115.259C1358.43 116.821 1358.43 116.821 1359.24 119.259C1357.87 123.009 1357.87 123.009 1356.24 126.259C1354.64 122.257 1355.95 119.213 1357.24 115.259Z" fill="#2A74FA"/>
    <path d="M1359.24 110.259C1362.54 110.259 1365.84 110.259 1369.24 110.259C1369.24 110.589 1369.24 110.919 1369.24 111.259C1368.17 111.383 1367.1 111.506 1365.99 111.634C1362.86 112.155 1360.91 112.66 1358.24 114.259C1358.57 112.939 1358.9 111.619 1359.24 110.259Z" fill="#0F6CFD"/>
    <path d="M1396.24 211.259C1396.57 211.259 1396.9 211.259 1397.24 211.259C1396.91 214.559 1396.58 217.859 1396.24 221.259C1395.58 220.599 1394.92 219.939 1394.24 219.259C1394.82 212.682 1394.82 212.682 1396.24 211.259Z" fill="#1555D4"/>
    <path d="M63.2432 187.259C63.9032 187.919 64.5632 188.579 65.2432 189.259C64.2532 191.239 63.2632 193.219 62.2432 195.259C61.2532 195.259 60.2632 195.259 59.2432 195.259C60.3677 192.287 61.4661 189.924 63.2432 187.259Z" fill="#D5D7DE"/>
    <path d="M1516.24 150.259C1517.23 150.589 1518.22 150.919 1519.24 151.259C1517.76 155.219 1517.76 155.219 1516.24 159.259C1515.91 159.259 1515.58 159.259 1515.24 159.259C1515.57 156.289 1515.9 153.319 1516.24 150.259Z" fill="#246BF4"/>
    <path d="M693.243 137.259C694.806 138.509 694.806 138.509 696.243 140.259C695.973 143.233 695.389 144.113 693.243 146.259C692.398 142.881 692.135 140.584 693.243 137.259Z" fill="#3B435A"/>
    <path d="M82.2432 213.259C82.2432 213.919 82.2432 214.579 82.2432 215.259C79.8682 216.946 79.8682 216.946 77.2432 218.259C76.5832 217.929 75.9232 217.599 75.2432 217.259C75.2432 216.269 75.2432 215.279 75.2432 214.259C77.7338 213.572 79.622 213.259 82.2432 213.259Z" fill="#1F263B"/>
    <path d="M623.243 209.259C623.903 209.919 624.563 210.579 625.243 211.259C625.21 213.987 624.679 216.555 624.243 219.259C621.676 215.408 622.41 213.673 623.243 209.259Z" fill="#121B32"/>
    <path d="M95.2432 210.259C96.8932 210.259 98.5432 210.259 100.243 210.259C99.9132 211.249 99.5832 212.239 99.2432 213.259C100.233 213.589 101.223 213.919 102.243 214.259C99.9332 213.929 97.6232 213.599 95.2432 213.259C95.2432 212.269 95.2432 211.279 95.2432 210.259Z" fill="#040C27"/>
    <path d="M613.243 192.259C613.573 193.249 613.903 194.239 614.243 195.259C612.839 197.522 611.046 199.28 609.243 201.259C609.243 197.26 610.969 195.457 613.243 192.259Z" fill="#E5E6EB"/>
    <path d="M863.243 152.259C864.233 152.259 865.223 152.259 866.243 152.259C865.913 154.239 865.583 156.219 865.243 158.259C864.253 158.589 863.263 158.919 862.243 159.259C862.573 156.949 862.903 154.639 863.243 152.259Z" fill="#18223B"/>
    <path d="M478.243 129.259C478.903 129.919 479.563 130.579 480.243 131.259C479.868 133.884 479.868 133.884 479.243 136.259C478.583 135.929 477.923 135.599 477.243 135.259C477.573 133.279 477.903 131.299 478.243 129.259Z" fill="#151F39"/>
    <path d="M1028.24 123.259C1028.9 123.259 1029.56 123.259 1030.24 123.259C1029.91 125.899 1029.58 128.539 1029.24 131.259C1028.58 131.259 1027.92 131.259 1027.24 131.259C1027.57 128.619 1027.9 125.979 1028.24 123.259Z" fill="#2A3045"/>
    <path d="M809.243 122.259C809.903 123.249 810.563 124.239 811.243 125.259C809.593 126.909 807.943 128.559 806.243 130.259C806.243 126.683 807.332 125.206 809.243 122.259Z" fill="#242A43"/>
</svg>
