<svg width="96" height="96" viewBox="0 0 96 96" fill="none" xmlns="http://www.w3.org/2000/svg">
  <rect width="96" height="96" rx="22" fill="#007BFF"/>
  <path d="M24 54.5C24 50.9 26.9 48 30.5 48H65.5C69.1 48 72 50.9 72 54.5V56C72 57.1 71.1 58 70 58H26C24.9 58 24 57.1 24 56V54.5Z" fill="white"/>
  <path d="M36.8 36H56.8C59.2 36 61.3 37.4 62.3 39.6L65.5 47H30.5L33.2 40C34.1 37.6 36.3 36 38.9 36H36.8Z" fill="white"/>
  <path d="M34 60C37.3 60 40 62.7 40 66C40 69.3 37.3 72 34 72C30.7 72 28 69.3 28 66C28 62.7 30.7 60 34 60Z" fill="#0A2540"/>
  <path d="M62 60C65.3 60 68 62.7 68 66C68 69.3 65.3 72 62 72C58.7 72 56 69.3 56 66C56 62.7 58.7 60 62 60Z" fill="#0A2540"/>
  <path d="M34 63.5C35.4 63.5 36.5 64.6 36.5 66C36.5 67.4 35.4 68.5 34 68.5C32.6 68.5 31.5 67.4 31.5 66C31.5 64.6 32.6 63.5 34 63.5Z" fill="white"/>
  <path d="M62 63.5C63.4 63.5 64.5 64.6 64.5 66C64.5 67.4 63.4 68.5 62 68.5C60.6 68.5 59.5 67.4 59.5 66C59.5 64.6 60.6 63.5 62 63.5Z" fill="white"/>
  <path d="M38 40.5H55.5C56.7 40.5 57.8 41.1 58.4 42.2L60.3 45.5H35.7L37.2 41.9C37.4 41.1 38.1 40.5 38.9 40.5H38Z" fill="#DDEBFF"/>
  <rect x="42" y="51" width="12" height="2.6" rx="1.3" fill="#007BFF"/>
</svg>
