<svg xmlns="http://www.w3.org/2000/svg"  viewBox="0 0 50 50" width="50px" height="50px"><path d="M 27.259766 19.117188 C 26.364766 19.117188 25.535156 19.298125 25.535156 19.828125 C 25.535156 20.357125 25.899937 20.511047 26.710938 20.623047 C 27.522938 20.735047 28.156625 20.728156 28.140625 20.910156 C 28.122625 21.110156 27.486469 21.082031 26.980469 21.082031 C 26.474469 21.082031 25.717313 20.998312 25.570312 20.945312 C 25.536312 21.145313 25.494141 21.476563 25.494141 21.476562 C 25.494141 21.476562 26.718109 21.716797 27.412109 21.716797 C 28.106109 21.716797 29.494141 21.564937 29.494141 20.835938 C 29.494141 20.106937 28.106781 20.070156 27.800781 20.035156 C 27.494781 20.000156 26.788625 19.975391 26.765625 19.775391 C 26.741625 19.575391 27.541219 19.588328 27.824219 19.611328 C 28.106219 19.635328 28.718828 19.739828 29.048828 19.798828 C 29.095828 19.574828 29.130859 19.316406 29.130859 19.316406 C 29.130859 19.316406 28.154766 19.117188 27.259766 19.117188 z M 6.4707031 19.132812 C 5.3711914 19.127686 3.9042969 19.321094 3.9042969 20.386719 C 3.9042969 22.190719 7.6582031 21.599609 7.6582031 21.599609 L 7.7753906 20.939453 C 7.7753906 20.939453 5.0507812 21.315438 5.0507812 20.398438 C 5.0517813 19.370438 7.7753906 19.775391 7.7753906 19.775391 L 7.6582031 19.210938 C 7.6582031 19.210938 7.1304102 19.135889 6.4707031 19.132812 z M 9.4394531 19.240234 L 9.4394531 21.619141 L 10.550781 21.619141 L 10.550781 20.660156 L 12.570312 20.660156 L 12.570312 21.619141 L 13.689453 21.619141 L 13.689453 19.240234 L 12.570312 19.240234 L 12.570312 20.109375 L 10.550781 20.109375 L 10.550781 19.240234 L 9.4394531 19.240234 z M 15.498047 19.240234 L 15.498047 21.619141 L 16.587891 21.619141 L 16.587891 19.697266 L 17.753906 19.697266 C 17.753906 19.697266 18.349609 19.690469 18.349609 19.980469 C 18.349609 20.270469 17.775391 20.273438 17.775391 20.273438 L 16.900391 20.273438 L 16.900391 20.429688 L 18.205078 21.619141 L 19.630859 21.619141 L 19.630859 21.369141 L 18.582031 20.640625 C 19.047031 20.640625 19.476562 20.376547 19.476562 19.935547 C 19.476562 19.494547 18.711703 19.240234 17.970703 19.240234 L 16.587891 19.240234 L 15.498047 19.240234 z M 20.289062 19.240234 L 21.914062 20.671875 L 21.921875 21.619141 L 23.058594 21.619141 L 23.058594 20.677734 L 24.634766 19.240234 L 23.773438 19.240234 L 22.728516 20.136719 L 21.646484 19.240234 L 20.289062 19.240234 z M 41.494141 19.240234 L 41.494141 21.619141 L 42.585938 21.619141 L 42.585938 19.697266 L 43.75 19.697266 C 43.75 19.697266 44.345703 19.690469 44.345703 19.980469 C 44.345703 20.270469 43.773437 20.273438 43.773438 20.273438 L 42.896484 20.273438 L 42.896484 20.429688 L 44.203125 21.619141 L 45.626953 21.619141 L 45.626953 21.369141 L 44.578125 20.640625 C 45.043125 20.640625 45.472656 20.376547 45.472656 19.935547 C 45.472656 19.494547 44.707797 19.240234 43.966797 19.240234 L 42.585938 19.240234 L 41.494141 19.240234 z M 31.097656 19.259766 L 31.097656 21.611328 L 34.808594 21.611328 L 34.808594 20.976562 L 32.203125 20.976562 L 32.203125 19.259766 L 31.097656 19.259766 z M 36.117188 19.259766 L 36.117188 21.611328 L 39.929688 21.611328 L 39.929688 21.011719 L 37.271484 21.011719 L 37.271484 20.646484 L 39.828125 20.646484 L 39.828125 20.117188 L 37.271484 20.117188 L 37.271484 19.746094 L 39.929688 19.746094 L 39.929688 19.259766 L 36.117188 19.259766 z M 1.4628906 24 C 1.0252439 24 0.83229305 24.141175 0.61914062 24.298828 C 0.40598822 24.456482 0.20303466 24.66887 0.072265625 24.998047 L 1.0019531 24.367188 C 1.0019531 24.367188 0.013701435 25.218555 0.013671875 25.21875 C 0.013642305 25.218945 0.00873555 25.255012 0.0078125 25.263672 C 0.0059664 25.281002 0.00455274 25.288315 0.00390625 25.296875 C 0.00261327 25.313997 0.002609705 25.328 0.001953125 25.34375 C 0.00063995971 25.37525 -0.00078879644 25.411019 0 25.453125 C 0.00157759 25.537335 0.0084797 25.646481 0.03125 25.775391 C 0.07679059 26.033209 0.18417035 26.403171 0.52148438 26.732422 A 1.0001 1.0001 0 0 0 0.53125 26.742188 C 0.94566675 27.134902 1.9925926 28.180187 3.4335938 28.583984 A 1.0001 1.0001 0 0 0 3.4355469 28.583984 C 7.3049715 29.661267 17.607982 31.45037 20.619141 31.955078 A 1.0001 1.0001 0 0 0 20.625 31.957031 C 21.317479 32.069118 22.074933 31.905524 22.671875 31.447266 C 22.751445 31.386716 23.188081 31.207372 23.666016 31.121094 C 24.143905 31.034741 24.672667 31 25 31 C 25.327333 31 25.85605 31.03481 26.333984 31.121094 C 26.811919 31.207374 27.248554 31.386715 27.328125 31.447266 C 27.924686 31.90494 28.684066 32.068767 29.376953 31.955078 A 1.0001 1.0001 0 0 0 29.380859 31.955078 C 32.392018 31.45037 42.695029 29.661267 46.564453 28.583984 A 1.0001 1.0001 0 0 0 46.566406 28.583984 C 48.0078 28.180077 49.055413 27.133824 49.46875 26.742188 A 1.0001 1.0001 0 0 0 49.480469 26.730469 C 49.816473 26.401184 49.921155 26.032403 49.966797 25.775391 C 49.989617 25.646885 49.99827 25.539043 50 25.455078 C 50.000865 25.413098 49.999334 25.377108 49.998047 25.345703 C 49.997427 25.330003 49.997391 25.315898 49.996094 25.298828 C 49.995469 25.290328 49.993988 25.282945 49.992188 25.265625 C 49.991285 25.256925 49.986428 25.220893 49.986328 25.220703 C 49.986299 25.220508 49.929687 25.003906 49.929688 25.003906 L 49.927734 24.998047 C 49.797141 24.668895 49.594012 24.456482 49.380859 24.298828 C 49.167707 24.141175 48.974756 24 48.537109 24 L 30.392578 24 C 29.930251 24 29.438378 24.19078 29.085938 24.537109 A 1.0001 1.0001 0 0 0 29.080078 24.541016 C 29.05964 24.561408 28.477522 25 27.882812 25 L 25 25 L 22.117188 25 C 21.52386 25 20.939331 24.560337 20.919922 24.541016 A 1.0001 1.0001 0 0 0 20.914062 24.537109 C 20.561663 24.190773 20.069749 24 19.607422 24 L 1.4628906 24 z M 2.9804688 26 L 18 26 C 18 27.1 19.9 28 21 28 L 29 28 C 30.1 28 32 27.1 32 26 L 47.019531 26 C 46.655203 26.258187 46.382731 26.558069 46.025391 26.658203 C 42.502446 27.638786 32.035859 29.4827 29.054688 29.982422 C 28.847772 30.016372 28.709508 29.986422 28.544922 29.859375 A 1.0001 1.0001 0 0 0 28.539062 29.855469 C 27.957674 29.413013 27.318019 29.265815 26.689453 29.152344 C 26.060887 29.038872 25.453667 29 25 29 C 24.546333 29 23.939113 29.03887 23.310547 29.152344 C 22.681981 29.265815 22.042366 29.413019 21.460938 29.855469 A 1.0001 1.0001 0 0 0 21.455078 29.859375 C 21.293272 29.984136 21.151933 30.015476 20.945312 29.982422 C 17.964181 29.482706 7.497554 27.638786 3.9746094 26.658203 L 3.9726562 26.658203 C 3.6154909 26.557785 3.3441252 26.257692 2.9804688 26 z"/></svg>