<?xml version="1.0" ?><svg id="DPF" viewBox="0 0 550 550" xmlns="http://www.w3.org/2000/svg"><defs><style>.cls-1{fill:#565656;}.cls-2{fill:#545353;}.cls-3{fill:#686767;}.cls-4{fill:#9c2c28;}</style></defs><title/><path class="cls-1" d="M271.81,17c-135.1,0-245,109.93-245,245s109.9,245,245,245,245-109.94,245-245S406.92,17,271.81,17Zm0,1.74c134.1,0,243.25,109.13,243.25,243.23,0,1.38-.06,2.79-.08,4.17a40,40,0,0,0-12.86-14.69c-12.69-9.16-19.31-41.05-20.57-53.3l-.09-.14c.86,8.65,1.29,17.6,1.29,27a396.4,396.4,0,0,1-4.32,55.9c-8.52,59.8-37.43,123.84-54.52,143.48,0,0-1,1.15-1.09,1.17L419,429.56l-.18.12c-41.52,33.95-79.71,46-145.91,46h-.45c-66.22,0-104.44-12.07-146-46l-.16-.12s-3.94-4.13-3.94-4.16l-1-1c-17-19.62-46-83.66-54.54-143.5A393.12,393.12,0,0,1,62.57,225c0-8.8.63-17,1.43-25.08l-.25,1.25C62.54,213.42,58.83,234,45.29,242c-7.21,4.29-13.52,11.71-16.67,23.11,0-1-.07-2.07-.07-3.11C28.55,127.85,137.67,18.72,271.81,18.72Z"/><path class="cls-2" d="M74.25,287.25c.1.61.21,1.26.31,1.9.42,2.27.82,4.57,1.29,6.83a4.28,4.28,0,0,1,.07.48c.48,2.4,1,4.79,1.54,7.2.18.63.33,1.36.45,2,.49,2.1,1,4.22,1.52,6.33.1.31.13.59.21.92.59,2.34,1.21,4.67,1.82,7,.21.72.38,1.41.6,2.13.54,2,1.09,3.9,1.66,5.89.15.41.25.82.37,1.24.67,2.23,1.37,4.47,2.06,6.69.22.74.47,1.46.67,2.14.6,1.8,1.18,3.57,1.77,5.31.2.54.36,1.09.56,1.6.7,2.16,1.45,4.2,2.21,6.3.24.72.5,1.46.74,2.12.61,1.63,1.24,3.27,1.8,4.87.23.56.46,1.15.67,1.71.76,2,1.54,4,2.33,5.89l.8,2c.62,1.49,1.22,3,1.88,4.47.21.56.44,1.12.69,1.64.8,1.88,1.6,3.68,2.38,5.47.28.61.53,1.17.78,1.76.66,1.41,1.32,2.75,1.94,4.16.23.44.47.94.68,1.45.81,1.65,1.63,3.33,2.46,4.93.23.48.46.93.7,1.42.67,1.28,1.33,2.59,2,3.82.15.27.28.55.43.81h0c8.81,11.3,17.9,14.22,20.72,12.6,2.33-1.39,3.28-10.34,1.47-22.62-1.07-3.38-2.11-6.74-3.16-10.16-.35-1.16-.73-2.33-1.1-3.47q-2.55-8.46-4.89-17c-.19-.59-.32-1.23-.51-1.86-1.36-5-2.66-10.05-3.89-15.1-.41-1.74-.84-3.49-1.26-5.24-.92-4-1.87-7.93-2.73-11.9-.45-2-.9-4-1.3-6.05-.84-3.78-1.6-7.58-2.35-11.32-.41-2.05-.81-4.06-1.17-6.07-.76-4-1.48-7.91-2.15-11.84-.32-1.72-.63-3.51-.94-5.25-.92-5.6-1.82-11.22-2.6-16.76-8-55-7.67-104.36,4.14-134.49a45.43,45.43,0,0,1,4.56-8.85,20,20,0,0,1,2.24-2.75C141.07,95.13,207,82.89,273,82.89s131.84,12.24,156.24,36.65a21.7,21.7,0,0,1,2.21,2.75,46.81,46.81,0,0,1,4.53,8.85c11.84,30.13,12.15,79.53,4.14,134.49-.78,5.54-1.64,11.16-2.59,16.76-.3,1.83-.63,3.66-1,5.51-.65,3.82-1.33,7.65-2.07,11.51-.4,2.15-.82,4.35-1.27,6.5-.72,3.58-1.43,7.14-2.21,10.68-.46,2.27-.94,4.51-1.47,6.77-.77,3.58-1.62,7.16-2.45,10.75-.5,2.15-1,4.31-1.55,6.46-1,4-2.05,8-3.12,12-.44,1.61-.85,3.32-1.32,5-1.48,5.49-3,10.95-4.69,16.34-.53,1.78-1.07,3.49-1.64,5.21-1,3-1.87,6.08-2.84,9.08-1.7,12-.74,20.77,1.6,22.13,2.62,1.54,11-1.08,19.43-11.05,2.86-5.32,5.82-11.2,8.76-17.63,0-.05,0-.11.05-.15q2.91-6.35,5.73-13.24a3.25,3.25,0,0,0,.23-.54c.93-2.24,1.8-4.49,2.72-6.83,0,0,0,0,0-.05.88-2.32,1.79-4.67,2.64-7.1.1-.28.24-.61.34-.88.83-2.3,1.63-4.63,2.49-6.94,0-.08,0-.18,0-.28.82-2.39,1.62-4.79,2.41-7.22.14-.44.28-.9.41-1.34.75-2.28,1.48-4.6,2.17-6.92a2.39,2.39,0,0,0,.12-.46c.75-2.43,1.44-4.87,2.13-7.32.12-.55.26-1.05.42-1.56.63-2.37,1.25-4.75,1.86-7.11a1.84,1.84,0,0,0,.1-.42c.63-2.44,1.18-4.91,1.78-7.39.12-.59.29-1.17.41-1.74.54-2.4,1-4.84,1.5-7.18a1.66,1.66,0,0,1,.13-.35q.69-3.69,1.35-7.41c.1-.58.21-1.19.31-1.78.42-2.5.82-5,1.15-7.45a386.89,386.89,0,0,0,4.28-55c0-31.22-4.9-57.9-15-81.56a94.15,94.15,0,0,0-36.81-42.94C383.59,74.68,337,59.52,289.74,56.64c-5.53-.33-11.22-.5-16.84-.5h-.44c-5.66,0-11.29.17-16.84.5-47.17,2.88-93.84,18-134.92,43.81a94.05,94.05,0,0,0-36.82,42.94c-10.1,23.66-15,50.34-15,81.56a392.54,392.54,0,0,0,4.27,55C73.45,282.39,73.84,284.83,74.25,287.25Z"/><path class="cls-3" d="M352.57,445.45a2.75,2.75,0,0,1-.3.07c-2.06.66-4.14,1.21-6.24,1.73-.34.11-.72.22-1.1.31q-3.65.92-7.31,1.63a340.16,340.16,0,0,1-64.38,5.87h-.59a339.7,339.7,0,0,1-64.38-5.87c-2.25-.43-4.47-.94-6.72-1.45s-4.18-1.1-6.26-1.74a2.05,2.05,0,0,1-.43-.09c-11.64-2.82-26.94-6.53-27.55-4.24-.76,2.75,7.52,9.9,15.11,14.32a.52.52,0,0,0,.17.12c.32.1.63.24.95.32.5.21,1,.37,1.5.57,2.35.87,4.71,1.68,7.11,2.46.31.06.64.15,1,.24,2.25.71,4.54,1.35,6.85,2,.48.13.95.25,1.43.4,2.41.61,4.89,1.19,7.41,1.71.63.11,1.25.28,1.86.38,2.53.52,5.1,1,7.72,1.4.57.14,1.15.19,1.76.29,2.73.46,5.5.84,8.38,1.2.24,0,.49.08.77.08,2.78.36,5.62.63,8.52.89.5.05,1,.1,1.55.13,3,.25,6,.46,9.14.61.66.05,1.26.1,1.94.1,3.14.19,6.34.3,9.65.39l1.61,0c3.54.08,7.05.13,10.75.13h.44c3.65,0,7.19,0,10.67-.13l1.71,0c3.27-.09,6.48-.2,9.65-.39.65,0,1.3-.05,1.95-.1,3.11-.18,6.17-.36,9.15-.61.5,0,1-.11,1.48-.13,2.83-.26,5.6-.53,8.31-.84.35-.05.75-.13,1.12-.15,2.79-.34,5.51-.74,8.2-1.18.68-.1,1.34-.17,2-.31,2.57-.41,5.09-.86,7.54-1.39.7-.14,1.37-.29,2-.41,2.46-.55,4.93-1.13,7.32-1.74.52-.1,1-.26,1.5-.41,2.13-.56,4.19-1.18,6.28-1.79.59-.17,1.13-.32,1.71-.5,2.23-.74,4.43-1.48,6.62-2.27.69-.26,1.38-.51,2-.77a9.44,9.44,0,0,0,1.08-.4c.06,0,.09-.06.17-.09,7.49-4.47,15.47-11.41,14.69-14.07C377.53,439.5,363.89,442.72,352.57,445.45Z"/><path class="cls-4" d="M426.89,137a38.44,38.44,0,0,0-4-7.66,17.57,17.57,0,0,0-1.64-2.15C400.5,106.4,342.3,92.93,273,92.93S145.4,106.4,124.59,127.16a25.84,25.84,0,0,0-1.63,2.15,38.29,38.29,0,0,0-4,7.66c-10.52,26.8-11.85,72.31-3.75,128.15,7.12,49.36,19.32,98.48,34.35,138.35,2.66,7.18,5.08,10,11.06,14.6a129.47,129.47,0,0,0,50.44,21.31A327.6,327.6,0,0,0,272.67,445h.57a325.77,325.77,0,0,0,61.56-5.61,129.11,129.11,0,0,0,50.47-21.31c5.92-4.64,8.35-7.39,11-14.59,15-39.83,27.21-89,34.4-138.36C438.75,209.28,437.4,163.77,426.89,137Zm-310.15,9.67a91.52,91.52,0,0,1,3.08-9.35c.05-.13.07-.21.11-.3a1295.17,1295.17,0,0,0,8.3,192.24q-3.16-13.64-5.94-27.67A1297.63,1297.63,0,0,1,116.74,146.64Zm34.34,258.28c-16.63-100.34-17.85-213.53-15.8-284.9,1-.55,1.94-1.15,2.94-1.69-2.15,72.89-.95,190.73,17,293.6A25.32,25.32,0,0,1,151.08,404.92ZM392.55,111.3c.35,16.55.59,35.19.6,55.2h-2.87c0-20.43-.26-39.45-.61-56.28Zm-5.39,183.31c1.45-28,2.31-56,2.79-82.69.25-8.8.42-14.54.49-15.67H393c-.55,54.08-2.8,114.78-8.23,170.31C384.83,364.21,386,331.1,387.16,294.61ZM362.32,430c-1,.42-2,.86-3,1.26,2.62-19.49,4.78-41.33,6.5-64.59h2.88C367,389.38,364.88,410.81,362.32,430Zm-46.44,11.46c-.93.13-1.9.21-2.84.36,1-20.95,1.8-46.66,2.43-75.15h2.79C317.63,395,316.86,420.58,315.88,441.44Zm-83.07.41c-.93-.11-1.86-.22-2.82-.35-1-20.89-1.76-46.51-2.38-74.85h2.8C231,395.17,231.84,420.91,232.81,441.85Zm-22.68-275-2.81,0c0-24.34,0-47.57.09-68.6.94-.13,1.86-.25,2.79-.4C210.12,119,210.08,142.34,210.13,166.83Zm-54.51-.31-2.9,0c0-20,.27-38.65.64-55.2.9-.35,1.89-.72,2.86-1.08C155.85,127.05,155.64,146.07,155.62,166.52Zm33.75-65.25c.95-.2,1.86-.38,2.82-.53-.2,20-.3,42.37-.24,66l-2.8,0C189.08,143.3,189.19,121.14,189.37,101.27Zm2.68,91.57H180.52V253h20.94v22.11H180.52l.3,87.63-1,0-2.85,0-13.27-.12-2.91,0-2.62,0L156.58,308l-3.83-133.74-.13-3.86h.1l2.9.05,15.32.09h2.84l15.37.08,2.8,0,15.4.09h.25v22.09H192.05Zm.64,56.22h-2.83c-.29-17.63-.48-35.15-.59-52.29h2.83C192.2,213.91,192.42,231.43,192.69,249.06Zm51-154.41c.89-.06,1.8-.11,2.7-.15,0,22.46,0,46.74.1,71.94h-2.71C243.7,141.32,243.67,117.06,243.67,94.65Zm21.14-.77.17,72.79h-2.72l-.16-72.74C263,93.91,263.89,93.91,264.81,93.88Zm34.66.62c.94,0,1.87.09,2.76.15,0,22.46,0,46.83-.09,72H299.4C299.43,141.42,299.47,117,299.47,94.5Zm39,3.71c.11,21,.16,44.17.1,68.46l-2.82,0c.06-24.44,0-47.78-.08-68.89C336.59,98,337.5,98.08,338.44,98.21Zm30.5,264.54H358.05l.88-170v-.43H338.32V170.61h.2l15.39,0h2.85l15.37-.12H375l15.32-.07h2.87l13.8,0v22h-20.3L381,362.75Zm-50.22-18.36c-.2-18.38-.7-46-1.92-61.13-.25-3-.49-5.49-.81-7.32l0-.38H286.13l-.18,87.1H263.88L262.4,235.33l-.76-64.72h56.07c.91,1.75,1.74,3.55,2.61,5.37,7.17,15.74,11.93,34.43,15.05,54.12,1,6.56,1.88,13.24,2.58,20,3.86,37,3.08,75.2,2.56,103-.1,3.41-.16,6.61-.22,9.64H318.83v-.05C318.83,362.48,318.82,355,318.72,344.39Zm1.62-177.29-.21-.43h-2.59c.06-25,.06-48.94,0-70.88.94.09,1.85.15,2.76.26C320.4,118,320.4,142.06,320.34,167.1Zm-90,195.65h-8l-3.7-192.36h9.69l15.45,0h2.55l-.52,192.38H230.33ZM338.25,223.48c-.81-4.53-1.71-9-2.71-13.34,0-4.63,0-9.27.09-13.89h2.79C338.36,205.27,338.32,214.35,338.25,223.48ZM375,166.57h-2.83c0-22.31-.16-43.25-.44-61.84,1,.24,1.92.5,2.87.77C374.81,123.88,375,144.53,375,166.57Zm-18.2.05h-2.83c0-23.56,0-45.92-.22-65.88.93.15,1.89.33,2.79.53C356.7,121.12,356.81,143.26,356.76,166.62Zm-73-72.69-.15,72.74h-2.72l.19-72.79C282,93.91,282.87,93.91,283.76,93.93Zm-55.44,72.55-2.79,0c-.07-24.82-.07-48.68,0-70.45.91-.11,1.81-.17,2.73-.26C228.23,117.65,228.24,141.52,228.32,166.48Zm-54.54.14-2.86-.05c0-22,.14-42.69.42-61.07.91-.27,1.9-.53,2.87-.77C173.92,123.34,173.77,144.3,173.78,166.62ZM161.12,366.46l2.87,0c2,20,4.37,39.23,7.22,57.3-1.07-.65-2.12-1.24-3.17-1.89C165.3,404.38,163,385.72,161.12,366.46Zm16.09.17,2.87,0c1.73,23.26,3.86,45.1,6.53,64.59-1-.4-2-.84-3.06-1.3C181,410.81,178.9,389.36,177.21,366.63Zm21.62,68.86c-4.42-41.79-7-98.29-8.34-156.46h2.82c1.4,58.53,4,115.41,8.47,157.26C200.83,436,199.85,435.74,198.83,435.49Zm15.47,3.6c-4.56-59.71-6.37-155.27-6.84-242.32h2.79c.52,87.33,2.33,183.2,6.91,242.83C216.17,439.43,215.26,439.25,214.3,439.09Zm30.62-72.44h2.76c.34,29.13.73,55.38,1.2,76.67-.94-.05-1.85-.14-2.78-.23C245.64,421.84,245.24,395.67,244.92,366.65ZM262.86,444l-.15-77.41h2.73l.19,77.49Zm17.56-77.41h2.78L283,443.92l-2.77.07Zm18.47-87.12h2.8c-.39,63-1,122.42-1.92,163.61-.91.05-1.84.16-2.77.18C297.93,402.1,298.52,342.5,298.89,279.46Zm33.63,87.19h2.85c-1,27.18-2.22,51.89-3.79,72.4-.94.18-1.91.33-2.85.48C330.31,419,331.55,394,332.52,366.65Zm21.26-170.4H355c0,4.24-.37,70.38-.61,119-1.52,45-3.84,87.23-7.37,120.28-1,.25-1.95.52-2.95.8C350.7,374.65,353.19,280.45,353.78,196.25Zm28.07,170.4h2.9c-1.89,19.22-4.18,37.81-6.87,55.26-1.08.65-2.16,1.24-3.24,1.89C377.52,405.75,379.87,386.56,381.85,366.65Zm26.46-170.4h2.55V166.44h-2.42c-.09-17.52-.35-33.71-.79-48.11,1,.54,2,1.14,2.93,1.69,2.1,71.39.85,184.57-15.8,284.92a26.58,26.58,0,0,1-4.07,7C403.09,340.59,407.5,262,408.31,196.25ZM425.94,137a1,1,0,0,0,.15.26,96.85,96.85,0,0,1,3.05,9.39,1301.78,1301.78,0,0,1-5.57,155q-2.71,13.92-5.92,27.46A1293.31,1293.31,0,0,0,425.94,137Z"/><path class="cls-4" d="M311.41,230.23c-2.69-14.92-5.84-26.71-9.37-35.14-.43-1.07-.89-2.11-1.35-3.09l-.11-.23h-1.27l-13.44-.13h-.43l-.56,61.93V254h30l-.06-.48C314.81,253.42,313.69,242.76,311.41,230.23Zm-12.13-31.35c1,2.45,1.85,5.12,2.72,8.09,0,14.33-.09,28.77-.17,43.11h-2.77C299.16,233,299.24,215.87,299.28,198.88Z"/></svg>