<?xml version="1.0" ?><svg viewBox="0 0 40 40" xmlns="http://www.w3.org/2000/svg"><g id="Logos"><path d="M20,27.68c8.28,0,15-3.44,15-7.68s-6.72-7.68-15-7.68S5,15.76,5,20s6.72,7.68,15,7.68m2.82-3.77a4.24,4.24,0,0,1-1.67,2.31,2.67,2.67,0,0,1-1,.24H20a26,26,0,0,1-7.5-1.05l-.08,0c-.2-.06-.3-.16-.3-.27a.33.33,0,0,1,.12-.24l.14-.12a17.25,17.25,0,0,1,4.82-2.59A23,23,0,0,1,20.73,21c.76-.16,3.58-.6,2.09,2.87m7.58-7.74a.34.34,0,0,1,.26-.18.58.58,0,0,1,.31.1c1.76,1.09,2.8,2.44,2.8,3.91,0,2.65-3.4,4.92-8.27,5.92-.31.06-.52.06-.59,0s-.07-.13,0-.24a1.08,1.08,0,0,1,.13-.18,39.39,39.39,0,0,0,5.24-9.07l.12-.24m-13.18-.1a4.24,4.24,0,0,1,1.67-2.31,2.48,2.48,0,0,1,1-.23H20a26.41,26.41,0,0,1,7.51,1l.08,0q.3.09.3.27a.34.34,0,0,1-.13.24l-.13.12a17.51,17.51,0,0,1-4.82,2.58A24.91,24.91,0,0,1,19.32,19c-.77.16-3.59.59-2.1-2.88m-2.72-2c.31-.06.52-.06.6,0a.21.21,0,0,1,0,.24.77.77,0,0,1-.13.17,39.39,39.39,0,0,0-5.24,9.07c0,.1-.09.19-.12.25a.29.29,0,0,1-.25.17A.51.51,0,0,1,9,23.9c-1.76-1.08-2.8-2.44-2.8-3.9,0-2.65,3.4-4.93,8.27-5.92" id="Hyundai"/></g></svg>