<svg xmlns="http://www.w3.org/2000/svg"  viewBox="0 0 50 50" width="50px" height="50px"><path d="M 24 0 C 22.048413 0 20.034096 0.21327866 18.373047 0.609375 L 18.361328 0.61132812 L 18.351562 0.61523438 C 17.568264 0.82125396 16.996318 1.3904578 16.708984 1.9433594 C 16.421651 2.4962609 16.330066 3.0308094 16.25 3.4316406 C 14.767527 10.626049 14.010097 17.880936 14 25 L 14 25.001953 C 14.0101 32.119039 14.767447 39.373672 16.253906 46.583984 C 16.332376 46.976324 16.422896 47.511057 16.714844 48.064453 C 17.006792 48.61785 17.585878 49.183878 18.375 49.390625 L 18.384766 49.392578 L 18.396484 49.396484 C 20.036234 49.787939 22.048413 50 24 50 C 25.951587 50 27.965904 49.786721 29.626953 49.390625 L 29.638672 49.388672 L 29.648438 49.384766 C 30.431771 49.178746 31.003682 48.609542 31.291016 48.056641 C 31.578314 47.50378 31.669934 46.969191 31.75 46.568359 C 33.232473 39.373951 33.989903 32.119064 34 25 L 34 24.998047 C 33.989903 17.881008 33.232553 10.626328 31.746094 3.4160156 C 31.667626 3.0236758 31.577104 2.4889435 31.285156 1.9355469 C 30.993208 1.3821503 30.414122 0.81612183 29.625 0.609375 L 29.615234 0.60742188 L 29.603516 0.60351562 C 27.963766 0.21197238 25.951587 7.4014868e-17 24 0 z M 24 2 C 25.79557 2 27.688786 2.2067423 29.121094 2.546875 C 29.370347 2.612698 29.410888 2.6706083 29.515625 2.8691406 C 29.620927 3.068744 29.706624 3.4159336 29.785156 3.8085938 L 29.785156 3.8105469 L 29.787109 3.8144531 C 31.247825 10.898258 31.990099 18.020967 32 25 C 31.98997 31.980435 31.247632 39.102854 29.791016 46.169922 L 29.789062 46.173828 L 29.789062 46.175781 C 29.709132 46.57595 29.622995 46.929964 29.517578 47.132812 C 29.413337 47.333399 29.373186 47.38617 29.144531 47.447266 C 27.687597 47.792984 25.796273 48 24 48 C 22.20443 48 20.311214 47.793258 18.878906 47.453125 C 18.629653 47.387305 18.589112 47.329392 18.484375 47.130859 C 18.379073 46.931256 18.293376 46.584066 18.214844 46.191406 L 18.214844 46.189453 L 18.212891 46.185547 C 16.75231 39.102436 16.010035 31.980369 16 25.001953 L 16 25 C 16.01003 18.019565 16.752368 10.897146 18.208984 3.8300781 L 18.210938 3.8261719 L 18.210938 3.8242188 C 18.290824 3.4240505 18.377005 3.0700359 18.482422 2.8671875 C 18.586663 2.6666022 18.626814 2.6138301 18.855469 2.5527344 C 20.312449 2.2069745 22.203727 2 24 2 z M 20.300781 5 L 20.119141 5.7695312 C 20.112041 5.7994173 20.103773 5.8396562 20.095703 5.8789062 L 20.089844 5.9003906 C 20.084644 5.9230376 20.078939 5.9395334 20.074219 5.9589844 L 20.054688 6.0410156 L 20.041016 6.0898438 C 18.580335 11.678135 17.948377 16.922349 18 23.007812 L 18.007812 24 L 19 24 L 21.509766 24 L 21.521484 24 C 21.722034 23.9949 22.046684 24.08719 22.507812 23.707031 C 22.738377 23.516954 22.854467 23.259285 22.904297 23.091797 C 22.954127 22.924309 22.967192 22.805808 22.982422 22.681641 L 22.990234 22.621094 L 23 5 L 20.300781 5 z M 25 5 L 25.009766 22.621094 L 25.017578 22.679688 C 25.032788 22.805135 25.04512 22.923862 25.09375 23.089844 C 25.14238 23.255826 25.255542 23.51232 25.486328 23.705078 C 25.947899 24.090595 26.273121 23.995006 26.462891 24 L 26.476562 24 L 26.490234 24 L 29.992188 24 L 30 23.007812 C 30.052637 16.927186 29.422345 11.682245 27.982422 6.1640625 L 27.970703 6.1230469 L 27.957031 6.0859375 C 27.957003 6.085856 27.932673 5.9963675 27.908203 5.890625 L 27.90625 5.8808594 C 27.89845 5.8447114 27.890159 5.8087875 27.880859 5.7695312 L 27.697266 5 L 25 5 z M 27.003906 11.669922 C 27.575562 14.971622 27.932284 18.349762 27.949219 22 L 27.009766 22 L 27.003906 11.669922 z M 20.996094 11.691406 L 20.990234 22 L 20.050781 22 C 20.068141 18.366381 20.424524 14.995805 20.996094 11.691406 z M 18.007812 26 L 18 26.992188 C 17.94736 33.072814 18.578694 38.317848 20.017578 43.835938 L 20.027344 43.876953 L 20.041016 43.914062 C 20.041046 43.914149 20.06812 44.006012 20.09375 44.119141 C 20.10155 44.155291 20.109841 44.191211 20.119141 44.230469 L 20.300781 45 L 21.091797 45 L 23 45 L 22.990234 27.378906 L 22.982422 27.320312 C 22.967238 27.19486 22.954884 27.076138 22.90625 26.910156 C 22.857616 26.744174 22.744458 26.48768 22.513672 26.294922 C 22.052101 25.909405 21.726879 26.004994 21.537109 26 L 21.523438 26 L 18.007812 26 z M 26.490234 26 C 26.287887 26.005 25.980019 25.90536 25.507812 26.28125 C 25.27171 26.469195 25.147076 26.73211 25.095703 26.902344 C 25.044333 27.072577 25.031125 27.192927 25.015625 27.318359 L 25.009766 27.378906 L 25 45 L 26 45 L 27.697266 45 L 27.880859 44.230469 C 27.890159 44.191209 27.89841 44.155289 27.90625 44.119141 L 27.908203 44.109375 L 27.925781 44.041016 L 27.945312 43.958984 L 27.958984 43.910156 C 29.419665 38.321901 30.051623 33.077651 30 26.992188 L 29.992188 26 L 26.501953 26 L 26.490234 26 z M 20.050781 28 L 20.990234 28 L 20.996094 38.330078 C 20.424679 35.028331 20.067714 31.650243 20.050781 28 z M 27.009766 28 L 27.949219 28 C 27.931859 31.633619 27.575476 35.004195 27.003906 38.308594 L 27.009766 28 z"/></svg>