<?xml version="1.0" encoding="utf-8"?>
<!-- Generator: Adobe Illustrator 26.0.3, SVG Export Plug-In . SVG Version: 6.00 Build 0)  -->
<svg version="1.0" id="katman_1" xmlns="http://www.w3.org/2000/svg" xmlns:xlink="http://www.w3.org/1999/xlink" x="0px" y="0px"
	 viewBox="0 0 600 450" style="enable-background:new 0 0 600 450;" xml:space="preserve">
<style type="text/css">
	.st0{fill-rule:evenodd;clip-rule:evenodd;}
</style>
<polygon class="st0" points="429.3,393.2 429.3,366.8 427.6,366.8 413.4,393.2 392,393.2 377.8,366.8 376.5,366.8 376.5,393.2 
	344.5,393.2 344.5,346 394.6,346 403.4,360.7 412.8,346 460.9,346 460.9,393.2 "/>
<path class="st0" d="M210.2,377c0,0,13.5-2.8,13.5-13.5c0-17.4-21.2-17.4-21.2-17.4h-63.2v47.6h34.5V378h5.3l11.8,15.4h36.7
	L210.2,377z M181.6,366.9h-8.1v-11.1h8.9c3.3,0.2,5.9,3,5.9,6.3c0,4.7-6.6,4.8-6.6,4.8H181.6z"/>
<path class="st0" d="M311.2,346.1h-51.7l-24.8,47.2h34.9l4.8-11.4h21.3l4.6,11.3h35.4L311.2,346.1z M277.7,371.1l7.5-14.7l7.4,14.7
	L277.7,371.1z"/>
<path d="M300.2,57.1c8.1,0,16.1,0,24.2,0c11.2,0.2,22.5,0.6,33.7,1c10.2,0.4,20.3,0.9,30.5,1.6c6.5,0.3,13,1,19.4,2.2
	c1.4,0.3,2.7,0.7,4,1.1c3.3,1.1,5.8,3.8,6.7,7.2c0.8,3,1.2,6.1,1.2,9.2c0,16.7,0,33.3,0,49.9c0,10.8-0.3,21.6-0.6,32.5
	c-0.3,10.1-0.7,20.2-1.3,30.3s-1.1,19.9-2.5,29.8c-1.2,11.9-5.8,23.2-13.3,32.6c-6.4,7.4-14,13.6-22.5,18.4
	c-20.6,12.2-41.7,23.4-63.3,33.6c-3.7,1.7-7.5,3.5-11.1,5.4c-3.1,1.7-6.9,1.7-10,0c-9.3-4.3-18.4-9-27.5-13.7
	c-16.3-8.4-32.6-16.9-48.3-26.3c-9.4-5.3-17.5-12.6-23.9-21.2c-5.3-8-8.8-17-10.1-26.5c-1.2-7.5-1.7-15-2.2-22.6
	c-0.6-9.4-1.1-18.8-1.5-28.2c-0.3-5.1-0.3-10.2-0.4-15.4c-0.7-25.6-0.7-51.2-0.6-76.8c-0.1-3.3,0.2-6.6,0.9-9.9
	c0.7-4.3,4-7.8,8.2-8.9c3.8-1,7.7-1.6,11.7-1.9c12.7-1.3,25.7-1.8,38.6-2.3c9.9-0.4,19.7-0.7,29.6-1C279.5,57,290,57.1,300.2,57.1z
	 M300.2,63.5c-11.3,0-22.6,0-33.9,0.3c-8.1,0.2-16.2,0.5-24.3,0.9c-12.7,0.5-25.1,1.1-37.7,2.1c-3.7,0.2-7.3,0.7-10.9,1.6
	c-3,0.6-5.4,3-5.9,6c-0.4,1.8-0.6,3.7-0.6,5.6c0,7.4,0,14.8-0.3,22.2c-0.2,17.8-0.3,35.6,0.3,53.4c0,3.2,0,6.3,0.3,9.7
	c0.7,12.1,1.2,24.3,2.2,36.4c0.6,7.6,1,15.2,2.3,22.7c1.2,8.3,4.4,16.2,9.1,23.2c6.3,8.4,14.4,15.4,23.6,20.5
	c15.9,9.5,32.5,18,49,26.5c8.1,4.2,16.2,8.4,24.5,12.2c1.4,0.7,3.1,0.7,4.5,0c5-2.4,10-4.7,15-7.1c16.7-8.1,33-16.7,49.1-26
	c7.7-4.1,15-8.8,21.9-14.1c9.9-7.7,16.8-18.7,19.5-30.9c1.7-8.6,2.7-17.3,3.2-26c0.6-7.7,0.9-15.5,1.4-23.3
	c0.9-13.4,1.3-26.7,1.5-40.1c0-11.8,0.2-23.7,0-35.5c-0.2-7.6,0-15.3-0.2-22.9c0-1.6-0.1-3.2-0.3-4.8c-0.3-3.9-3.2-7-7-7.7
	c-3.2-0.9-6.5-1.4-9.8-1.6c-10.8-0.7-21.5-1.4-32.2-1.9c-13-0.6-26.1-1-39.2-1.3C316.8,63.2,308.5,63.5,300.2,63.5L300.2,63.5z"/>
<path d="M268.8,202c1.3,3.6,2.5,6.7,3.6,9.8c0.3,0.6,0.9,1.1,1.5,1.3c3.2,1.8,6.3,3.6,9.5,5.4c1.1,0.5,1.8,1.5,1.9,2.7
	c1.3,8.9,2.7,17.7,4,26.6c0.1,1.4-0.1,2.9-0.4,4.3c-0.3,2.1-0.6,4.2-1,6.3c-0.2,0.7,0.2,1.4,0.9,1.6c0,0,0,0,0,0
	c3.2,1.3,6.3,2.7,9.7,4.1c0.6,0.3,1.4,0.3,2,0c3.4-1.3,6.9-2.7,10.3-4c0.7-0.1,1.2-0.8,1.1-1.5c0-0.1,0-0.2-0.1-0.3
	c-0.5-2.9-1-5.8-1.3-8.7c0-1.9,0.2-3.8,0.7-5.6c1.1-7.6,2.3-15.2,3.5-22.8c0.1-1.2,0.8-2.2,1.9-2.7c3.2-1.7,6.3-3.6,9.5-5.3
	c0.9-0.4,1.5-1.2,1.8-2.1c1-2.9,2.1-5.8,3.3-9c-2.3,0.4-4.3,0.9-6.3,1.2c-1.5,0.2-2.8,1-3.6,2.3c-1.3,1.8-2.7,3.6-4.1,5.3
	c-0.2,0.3-0.4,0.7-0.8,0.6c-0.4-0.1-0.3-0.6-0.2-1c0.8-5.1,1.5-10.2,2.2-15.3c0.1-1,0.8-1.9,1.8-2.1c3.5-1.2,6.9-2.5,10.4-3.6
	c0.8-0.2,1.5-0.9,1.6-1.7c0.6-3.8,1.3-7.5,2-11.3c0.2-0.7-0.1-1.4-0.7-1.7c-1.3-0.8-2.5-1.6-3.8-2.4c-0.7-0.3-1-1.1-0.7-1.7
	c3.3-11.9,9-23,16.6-32.8c4.6-5.9,10.9-10.1,18-12.2c12.7-3.4,22.7,1.1,28.8,13c3,5.9,4.5,12.4,4.3,19c0,1.3-0.5,1.8-1.8,1.9l-9,1
	c-1.2,0-1.8,0.6-2.1,1.9c-2.1,12.2-3.9,24.4-6.9,36.4c-1,4.6-2.7,9.1-4.8,13.4c-0.9,1.8-2.2,3.3-3.9,4.3c-2.3,1.2-4,0.5-4.6-2
	c-0.8-3.6-0.8-7.3,0-10.9c1.1-6.3,3-12.3,3.8-18.6c1-5.8,1.1-11.7,0.4-17.5c-0.3-2.4-1.2-4.7-2.7-6.6c-2.7-2.9-7.4-3.1-10.3-0.4
	c-0.5,0.5-1,1.1-1.4,1.7c-0.2,0.6-0.2,1.2,0,1.7c0.6,4.1,0.7,8.3,0.4,12.4c-0.4,5.5-3.2,10.5-7.6,13.6c-2,1.4-3.8,3.2-5.7,4.7
	c-0.6,0.5-1,1.3-1.2,2c-2.4,9.7-5,19.4-7.4,29.1c-1.5,4.6-3.7,8.9-6.3,12.9c-0.9,1.9-2,3.8-3.2,5.5c-2.7,3.7-2.8,8.1-3.6,12.3
	c-0.8,4.2-1.3,7.7-1.9,11.5c-0.4,4.1-3.5,7.3-7.6,8c-6,1.5-12.3,1.5-18.4,0c-3.9-0.8-6.9-4-7.3-8c-1-6.3-2.1-12.4-3.2-18.6
	c-0.2-0.8-0.5-1.6-0.9-2.4c-2.8-4.8-5.5-9.5-8.3-14.4c-1.3-2.2-2.2-4.6-2.9-7.1c-2.3-9.5-4.8-19-7.1-28.6c-0.3-1.1-0.9-2.2-1.8-2.9
	c-1.9-1.6-3.8-3.2-5.8-4.8c-4.1-3.1-6.6-7.9-7-13c-0.4-3.8-0.3-7.7,0.3-11.5c0.5-2.6-1-5.2-3.6-6c-3.7-1.6-7.9,0.1-9.5,3.8
	c0,0,0,0.1-0.1,0.1c-1.1,2.3-1.7,4.9-1.7,7.4c-0.2,9.2,1,18.3,3.4,27.2c1.3,4.4,1.8,9,1.7,13.6c0,1.2-0.2,2.3-0.6,3.5
	c-0.2,1.5-1.6,2.6-3.2,2.4c-0.5-0.1-0.9-0.2-1.3-0.5c-1.8-1-3.2-2.5-4.1-4.4c-2.5-5-4.3-10.4-5.4-15.9c-2.7-11.2-4.4-22.6-6.3-33.9
	c0-1.1-0.9-2-2-1.9c0,0,0,0,0,0l-9.1-1c-1,0-1.7-0.4-1.7-1.6c-0.5-9.3,2.5-18.4,8.4-25.5c5.4-6.7,14.3-9.6,22.6-7.3
	c8.7,2.1,16.4,7.2,21.5,14.6c6.3,8.5,11.1,18.1,14.2,28.2c1.3,3.8,1.3,3.8-2.2,6c-2.4,1.5-2.4,1.5-1.9,4.3c0.5,2.8,1.1,6.3,1.6,9.5
	c0.1,1,0.8,1.9,1.8,2.1c3.5,1.1,6.9,2.4,10.4,3.6c0.9,0.2,1.5,0.9,1.6,1.7c0.8,5.3,1.6,10.5,2.3,15.9c0,0.3,0.2,0.7-0.2,0.8
	c-0.4,0.1-0.5-0.3-0.7-0.5c-1.6-2-3.2-4-4.7-6c-0.6-0.8-1.4-1.3-2.4-1.5C273.7,203.1,271.4,202.6,268.8,202z M259,185.6
	c-0.3-2.6-0.6-5.6-1-8.6c0-0.6-0.3-1.1-0.6-1.6l-5.7-7.5c-0.2-0.3-0.4-0.6-0.7-0.5c-0.3,0.2-0.3,0.4-0.3,0.7c-0.7,3-1,6.1-1,9.2
	c-0.1,4,2.5,7.6,6.3,8.8c0.6,0.3,1.3,0.5,1.9,0.8C258.9,187.5,259.2,187,259,185.6z M349.1,166.9c-2,2.6-3.7,5-5.6,7.2
	c-1,1.1-1.6,2.5-1.7,4c-0.2,2.1-0.5,4.1-0.7,6.3c-0.3,3.2-0.3,3.2,2.8,1.9c3.4-1,5.9-3.9,6.3-7.5
	C350.6,174.9,350.2,170.8,349.1,166.9z"/>
<path d="M197,161.9c0.6,0.9,1.1,1.8,1.6,2.8c0.4,1.2,1.6,1.9,2.9,1.8c1.4,0,2.9,0.3,4.3,0.3c1.4,0.1,1.7,0.5,1.9,1.8
	c1.9,15.5,6,30.6,12.3,44.9c2.3,5.6,5.7,10.7,10,15c1.9,2,4.5,3.3,7.3,3.5c1.8,0.4,3.6-0.8,4-2.7c0.8-2.6,1.2-5.3,1.1-8.1
	c0.3-4.2,0-8.5-0.8-12.7c0-0.3,0-0.5,0-0.8c0.8,0,0.8,0.8,0.9,1.2c2.2,6.6,3.3,13.5,3.2,20.4c-0.3,11.1-7.6,15.6-17.2,15
	c-6.9-0.4-13.3-3.5-17.8-8.6l-0.4-0.4h-0.4c1.6,3.1,3.5,6,5.9,8.5c5.5,5.8,12,10.7,19,14.5c20.7,11.9,41.9,22.8,63.3,33.3
	c1,0.5,2.2,0.5,3.2,0c13.5-5.9,26.6-12.5,39.5-19.4c9.5-5,19-10.3,28.1-15.9c8-4.4,14.9-10.7,20.1-18.2c1-1.5,1.8-3.1,2.4-4.8
	c-2.8,3.7-6.4,6.6-10.6,8.6c-5.2,2.5-11.1,3.1-16.7,1.7c-5.5-1.3-9.6-6.1-9.9-11.8c-0.5-7.9,0.5-15.8,3.2-23.3c0-0.4,0.2-1,1-1.2
	c-0.2,1-0.3,1.9-0.5,2.9c-0.7,5.5-0.7,11,0,16.4c0.6,5.1,3,6.7,8.3,4.3c2.8-1.5,5.2-3.7,7-6.3c5-7.1,8.9-14.9,11.4-23.2
	c3.6-10.6,6.1-21.5,7.5-32.5c0-1.3,0.6-1.9,2-1.9c1.4,0,3.2-0.5,4.6-0.4c1.4,0.1,2.8-0.9,3.2-2.3c0.2-0.5,0.4-1.1,1-1.4
	c0.4,0.4,0.2,0.8,0.2,1.2c0,4.9,0,9.8,0,14.7c0,13.2-1.7,26.4-4.9,39.2c-0.8,4.4-1.9,8.8-3.2,13c-3.3,8.6-9.1,16.1-16.6,21.5
	c-6.6,4.8-13.6,9.1-20.8,12.9c-13.3,7.6-27,14.8-40.8,21.4c-5.1,2.5-10.4,4.7-15.6,7.1c-0.9,0.5-2,0.5-2.9,0
	c-14.4-6.9-28.6-14.3-42.7-21.8c-8.2-4.3-16.2-8.7-24.2-13.5c-7.3-4-13.7-9.4-19-15.9c-3.7-4.8-6.4-10.4-7.9-16.3
	c-1.7-6.1-3.7-12-4.9-18.2c-1.5-7.9-2.5-15.9-2.7-24c-0.3-6.8,0-13.6,0-20.5C196.5,163.3,196.6,162.5,197,161.9z"/>
<path d="M392.5,128.4l-2.9-5c-3.7-6.8-8.3-13.1-13.9-18.5c-5.3-5.5-12.5-8.7-20.1-9.1c-6.2-0.1-12.3,1.5-17.6,4.6
	c-8,4.8-14.8,11.3-20.1,19c-5,7-9.4,14.4-13.2,22.2c-0.2,0.7-0.7,1.4-1.3,1.8c-0.6-2-1-4-1.3-6.1c-0.3-1.5-0.4-3.2-0.9-4.6
	c-0.6-2.1-0.3-4.3,0.9-6.1c4-8.6,9.4-16.5,15.9-23.4c7.2-7.6,16.8-12.4,27.1-13.7c8.7-1.1,17.6,1.5,24.3,7.1
	c10,8.2,17.8,18.7,22.7,30.6c0.1,0.2,0.1,0.4,0.2,0.6C392.5,128,392.7,128.1,392.5,128.4z"/>
<path d="M205.7,128.4c1.6-4,3.5-7.9,5.8-11.6c4.3-7.3,9.8-13.8,16.2-19.2c8.8-7.7,21-10.2,32.1-6.7c9.1,2.7,17.1,8,23.2,15.3
	c5.8,6.8,10.6,14.4,14.2,22.5c0.4,0.7,0.5,1.5,0.3,2.3c-0.7,3.7-1.4,7.5-2,11.2c0,0.4,0,1-0.4,1.1c-0.4,0.1-0.7-0.6-0.9-1
	c-4-8.4-8.8-16.4-14.2-23.9c-5.4-8-12.7-14.5-21.3-19c-12-5.8-23.4-4.9-33.9,3.8c-3.2,2.7-6,5.8-8.5,9.1c-3.3,4.5-6.3,9.2-9,14.2
	C206.9,127.4,206.4,128,205.7,128.4z"/>
<path d="M201.6,129.8v27c0,0.5,0,1.1,0,1.6c-0.1,0.8-0.8,1.3-1.6,1.3c-0.7,0-0.4-0.9-0.5-1.3c-0.5-7.7-0.2-15.5-0.3-23.2
	c0-8.5,0-16.9,0-25.4c0-6.9,0-13.9,0.3-20.8c0-1.2,0.1-2.3,0.4-3.5c0.3-3.7,3.5-6.6,7.3-6.3c4.7-0.4,9.5-0.7,14-1l28.2-1.5
	c5.8-0.3,11.5-0.5,17.3-0.7c14.7-0.4,29.3-0.5,44-0.3c11.3,0.2,22.7,0.6,34,1c9.4,0.3,18.7,0.7,28.1,1.2c6.9,0.1,13.7,0.7,20.6,1.5
	c4.1,0.1,7.3,3.4,7.3,7.5c0,0.3,0,0.6-0.1,0.8c0.8,22.2,0.7,44.4,0.5,66.9c0,1.4,0,2.8-0.2,4.1c0,0.5,0.3,1.3-0.4,1.4
	c-0.8,0-1.5-0.5-1.7-1.2c-0.1-0.6-0.1-1.2,0-1.7c0-17.5,0-34.9,0-52.3c0-6,0-11.9-0.5-17.9c-0.3-3.2-1.2-4.3-4.3-5
	c-4.3-0.8-8.6-1.2-13-1.2c-13.7-0.7-27.5-1.2-41.3-1.7c-5.7-0.2-11.5-0.4-17.3-0.6c-14.4-0.5-28.9-0.5-43.3-0.3
	c-15,0.2-30.1,0.8-45.1,1.8c-8.1,0.5-16.3,0.9-24.4,1.4c-1.2,0-2.3,0.2-3.5,0.4c-2,0.2-3.6,1.7-3.9,3.7c-0.3,1.2-0.4,2.4-0.4,3.6
	v40.8H201.6z"/>
</svg>
