<?xml version="1.0" ?><svg viewBox="0 0 550 550" xmlns="http://www.w3.org/2000/svg" xmlns:xlink="http://www.w3.org/1999/xlink"><defs><linearGradient gradientUnits="userSpaceOnUse" id="linear-gradient" x1="220.49" x2="346.23" y1="86.28" y2="374.72"><stop offset="0" stop-color="#fff"/><stop offset="0.13" stop-color="#ddd"/><stop offset="0.33" stop-color="#b3b3b3"/><stop offset="0.51" stop-color="#939393"/><stop offset="0.69" stop-color="#7b7b7b"/><stop offset="0.86" stop-color="#6d6d6d"/><stop offset="1" stop-color="#686868"/></linearGradient><radialGradient cx="282.19" cy="227.82" gradientUnits="userSpaceOnUse" id="New_Gradient_Swatch_2" r="175.15"><stop offset="0" stop-color="#fff"/><stop offset="0.13" stop-color="#f9f9f9"/><stop offset="0.3" stop-color="#e9e9e9"/><stop offset="0.5" stop-color="#cecece"/><stop offset="0.71" stop-color="#a8a8a8"/><stop offset="0.93" stop-color="#787878"/><stop offset="0.98" stop-color="#6b6b6b"/></radialGradient></defs><title/><g id="Temperature"><path d="M370.58,439.68c-.46-23.28-19.25-42.06-42.08-42.08a42,42,0,0,0-42.13,42.08c-.05,23,18.69,41.8,42.13,42.1C351.33,481.48,370.12,462.67,370.58,439.68Zm-65.35,0c-.42-14.79,10.08-26.67,23.27-26.59,12.62-.08,23.08,11.8,23.22,26.59-.14,14.49-10.6,26.41-23.22,26.61C315.31,466.09,304.81,454.17,305.23,439.68Z" style="fill:#cb0d15"/><polygon points="418.18 415.31 442.55 415.31 442.55 400.95 375 400.95 375 415.31 400.49 415.31 400.49 479.55 418.18 479.55 418.18 415.31" style="fill:#cb0d15"/><path d="M463.59,461.81h32.16l6.66,17.74h21L491.28,401H469.17l-33.25,78.6H457Zm16.66-42.07,11,28.8H469.16Z" style="fill:#cb0d15"/><polygon points="74.8 479.55 92.52 479.55 92.52 415.31 116.91 415.31 116.91 400.95 50.41 400.95 50.41 415.31 74.8 415.31 74.8 479.55" style="fill:#cb0d15"/><path d="M205.51,439.68c-.32-23.28-19.13-42.06-42.11-42.08a42.09,42.09,0,1,0,0,84.18A42.87,42.87,0,0,0,205.51,439.68Zm-65.33,0c-.3-14.79,10.16-26.67,23.23-26.59,12.81-.08,23.25,11.8,23.26,26.59,0,14.49-10.45,26.41-23.26,26.61C150.34,466.09,139.88,454.17,140.18,439.68Z" style="fill:#cb0d15"/><polygon points="245.39 479.55 254.25 479.55 254.25 449.64 285.27 400.95 265.33 400.95 245.39 434.15 226.55 400.95 205.51 400.95 236.54 449.64 236.54 479.55 245.39 479.55" style="fill:#cb0d15"/><path d="M488.79,202c-4.58-13.82-12.61-26.29-22.37-37-11.13-12.23-24.49-22.34-38.72-30.68a242.3,242.3,0,0,0-51.8-22.35,310.47,310.47,0,0,0-61.59-12q-16-1.5-32.09-1.5a333.07,333.07,0,0,0-65.1,6.31,278.58,278.58,0,0,0-56.88,17.6,201.81,201.81,0,0,0-45.4,26.89c-12,9.59-22.75,20.95-30.65,34.17a88,88,0,0,0-12.66,39.47,83.8,83.8,0,0,0,7.86,40.37c6.25,13.49,15.64,25.34,26.46,35.45,12.47,11.66,26.89,21.13,42.08,28.85a260.55,260.55,0,0,0,54.37,20.05,322.07,322.07,0,0,0,63.38,9.26A339.32,339.32,0,0,0,332,353.57a293.41,293.41,0,0,0,59.23-15,221,221,0,0,0,48.53-24.83c13-9,25-19.7,34.42-32.43,8.43-11.38,14.75-24.41,17.4-38.37A81.88,81.88,0,0,0,488.79,202Zm-186-85.51a266.49,266.49,0,0,1,47.7,6.84c11.38,2.81,22.94,6.53,32.92,12.82,7.37,4.64,15.14,11.79,14.52,21.32-.75,11.44-12.48,18.74-21.72,23.16-13.15,6.3-27.54,9.6-41.82,12.1l-2.47.43c-2.27-13.91-5.4-27.66-10.86-40.71-4.63-11.08-10.93-22.22-20.39-29.88-2.78-2.25-5.58-4.48-8.37-6.72Zm-15.6,31.06c6.39,2,11.06,7.47,14.4,13,5.66,9.46,8.61,20.5,10.54,31.26.2,1.22.41,2.43.62,3.64a394.92,394.92,0,0,1-51.6.65c-3.14-.18-6.26-.42-9.39-.65,1.53-8.73,3.36-17.4,6.66-25.66,2.79-7,6.64-14.21,12.69-18.92C275.64,147.29,281.5,145.75,287.14,147.51Zm-119.66,3.33c1.69-4.78,5.34-8.64,9.27-11.72a72.33,72.33,0,0,1,17.88-9.74c18.08-7.2,37.76-10.4,57-12.16,6.81-.63,13.65-1,20.48-1.39l-8,6.38A55.49,55.49,0,0,0,254,133.06c-8.2,11.3-13.33,24.74-16.92,38.14-1.94,7.23-3.26,14.56-4.55,21.92-12-2.13-23.95-4.56-35.43-8.81-9-3.33-18.5-7.72-25-15C167.49,164.31,165,157.49,167.48,150.84Zm92.4,189.55a281.82,281.82,0,0,1-35.07-4.81,251.45,251.45,0,0,1-31.88-8.65,210.13,210.13,0,0,1-28.35-12.12,166.73,166.73,0,0,1-23.9-15,126.89,126.89,0,0,1-19-17.6,95.26,95.26,0,0,1-13.37-19.68,75.58,75.58,0,0,1-7-21.19,70.45,70.45,0,0,1,.57-26.21,80.47,80.47,0,0,1,12.72-28.84,117.36,117.36,0,0,1,22.07-23.49l2.89-2.39c.48,2.25.9,4.53,1.49,6.75a32.57,32.57,0,0,0,3.52,8.18c3.62,6.08,8.84,11.11,14.45,15.36,15.52,11.75,34.67,18.57,53.4,23.17,5.21,1.28,10.47,2.23,15.71,3.32.47.1,1.62.11,2,.42.2.16.08.05.14.38a21,21,0,0,1-.07,3.63c-.15,8.23-.11,16.44.42,24.66,1.32,20.53,4.88,41.42,12.95,60.45a86.7,86.7,0,0,0,12.1,20.85c3.7,4.58,8.21,8.24,12.66,12.05l1.79,1.53Zm14.82-38.28a28,28,0,0,1-9.83-9A65,65,0,0,1,257,277.46c-5.35-14.72-7.41-30.64-7.9-46.23-.08-2.24-.11-4.49-.11-6.73,0,0-.1-3.42-.09-4.33a380.52,380.52,0,0,0,55.58.82c3.51-.23,7-.53,10.51-.82.14,14.56-.76,29.14-4,43.38A103.46,103.46,0,0,1,304.81,283a50.93,50.93,0,0,1-8.53,13.68A21.81,21.81,0,0,1,286,303.41,16.07,16.07,0,0,1,274.7,302.11ZM463.83,236a72.86,72.86,0,0,1-5.4,21.52,89,89,0,0,1-11.89,20.11,118.21,118.21,0,0,1-17.7,18.15,157.53,157.53,0,0,1-22.75,15.66,199.56,199.56,0,0,1-27.36,12.88,240.33,240.33,0,0,1-31.05,9.52,276.32,276.32,0,0,1-34.4,5.81c-2.91.3-5.84.57-8.76.78l-10.15.76c3.76-3.21,7.74-6.3,11.18-9.87a74.2,74.2,0,0,0,12.85-19.06c8.79-18,12.89-38.15,14.8-57.94a240.82,240.82,0,0,0,1.14-28.17l-.09-4.61a19.49,19.49,0,0,1-.08-3.58c.06-.32-.06-.21.14-.37.4-.32,1.66-.31,2.17-.41,2.43-.45,4.87-.9,7.29-1.41,19.75-4.11,39.8-10.47,56.79-21.62a66.46,66.46,0,0,0,16.68-14.9,37.63,37.63,0,0,0,4.74-8,41.85,41.85,0,0,0,2.21-7.52c.24-1.09.48-2.18.73-3.27,7.09,6,14,12,19.9,19.24a86.85,86.85,0,0,1,15.81,28.22A71.18,71.18,0,0,1,463.83,236Z" style="fill:url(#linear-gradient)"/><path d="M282.29,357.48q-8.3,0-16.62-.4a322.06,322.06,0,0,1-63.44-9.27,261,261,0,0,1-54.41-20.07,183,183,0,0,1-42.15-28.88c-11.75-11-20.67-22.94-26.51-35.53a84.27,84.27,0,0,1-7.88-40.5A88.6,88.6,0,0,1,84,183.25c7.35-12.28,17.68-23.8,30.72-34.24a202.24,202.24,0,0,1,45.45-26.92,279,279,0,0,1,56.93-17.61,333.44,333.44,0,0,1,65.15-6.31c10.75,0,21.56.5,32.11,1.49a310.73,310.73,0,0,1,61.65,12A243.31,243.31,0,0,1,427.82,134c15.39,9,28.44,19.36,38.78,30.73,10.57,11.62,18.11,24.11,22.43,37.11a82.09,82.09,0,0,1,2.82,41.06c-2.52,13.33-8.39,26.28-17.44,38.48-8.77,11.81-20.37,22.74-34.48,32.49a221.8,221.8,0,0,1-48.58,24.86,295.12,295.12,0,0,1-59.28,15.05A337.93,337.93,0,0,1,282.29,357.48Zm-.07-258.81a333.29,333.29,0,0,0-65.06,6.3,278.53,278.53,0,0,0-56.82,17.58A201.85,201.85,0,0,0,115,149.4c-13,10.4-23.29,21.88-30.6,34.11a88.13,88.13,0,0,0-12.62,39.35,83.8,83.8,0,0,0,7.83,40.26c5.81,12.53,14.7,24.43,26.41,35.37S131.75,319,148,327.3a261.23,261.23,0,0,0,54.32,20,322.44,322.44,0,0,0,63.33,9.25A340,340,0,0,0,332,353.33a295,295,0,0,0,59.18-15,221.45,221.45,0,0,0,48.47-24.8c14.06-9.72,25.62-20.61,34.35-32.38,9-12.14,14.85-25,17.36-38.27a81.55,81.55,0,0,0-2.8-40.81c-4.3-12.94-11.81-25.36-22.33-36.93-10.31-11.33-23.31-21.64-38.66-30.64a242.87,242.87,0,0,0-51.74-22.32,310.44,310.44,0,0,0-61.55-12C303.74,99.17,293,98.67,282.22,98.67Zm11.4,242.79.58-.5c1-.81,1.92-1.62,2.89-2.42a103.81,103.81,0,0,0,8.28-7.43,73.14,73.14,0,0,0,12.81-19c7.7-15.73,12.53-34.65,14.77-57.85a242.49,242.49,0,0,0,1.14-28.15L334,221.5c0-.36,0-.74-.07-1.13a9.88,9.88,0,0,1,0-2.49,1.26,1.26,0,0,0,0-.16.37.37,0,0,1,.19-.35,3.63,3.63,0,0,1,1.72-.41l.58-.06.88-.17c2.1-.39,4.28-.8,6.41-1.24,23.46-4.88,42-12,56.7-21.59,7.15-4.69,12.59-9.54,16.62-14.84a37.76,37.76,0,0,0,4.71-8,40.49,40.49,0,0,0,2.19-7.47l.82-3.67.32.26c6.42,5.4,13.78,11.79,19.93,19.27a86.67,86.67,0,0,1,15.86,28.31A71.87,71.87,0,0,1,464.08,236a72.8,72.8,0,0,1-5.42,21.59,89.57,89.57,0,0,1-11.92,20.17A118.92,118.92,0,0,1,429,295.93a157.37,157.37,0,0,1-22.79,15.69,199.84,199.84,0,0,1-27.39,12.89,241,241,0,0,1-31.08,9.54,276.91,276.91,0,0,1-34.43,5.8c-2.93.31-5.88.58-8.78.79Zm40.82-123.7a1.91,1.91,0,0,1,0,.2,9.9,9.9,0,0,0,0,2.37c0,.4.06.79.07,1.16l.09,4.61a243.51,243.51,0,0,1-1.14,28.21c-2.25,23.25-7.1,42.23-14.82,58a74.14,74.14,0,0,1-12.9,19.13,104.53,104.53,0,0,1-8.32,7.46c-.77.64-1.54,1.28-2.3,1.93l9.39-.7c2.89-.22,5.83-.49,8.76-.79a277.34,277.34,0,0,0,34.36-5.8,243.21,243.21,0,0,0,31-9.51A200.56,200.56,0,0,0,406,311.19a156.44,156.44,0,0,0,22.72-15.65,117.41,117.41,0,0,0,17.66-18.11,88.57,88.57,0,0,0,11.86-20.05,72.55,72.55,0,0,0,5.38-21.44h0a71.28,71.28,0,0,0-3.19-28,86,86,0,0,0-15.77-28.15c-6-7.32-13.22-13.6-19.55-18.93l-.64,2.87a40.93,40.93,0,0,1-2.22,7.56,38,38,0,0,1-4.77,8.07c-4.07,5.34-9.54,10.24-16.74,15C386,204,367.34,211.08,343.82,216c-2.14.44-4.31.85-6.42,1.24l-.87.17c-.16,0-.39.05-.64.07a3.71,3.71,0,0,0-1.42.28Zm-63.65,123.7-10.93-.82a281.11,281.11,0,0,1-35.1-4.82,250,250,0,0,1-31.91-8.66A208.78,208.78,0,0,1,164.47,315a167.78,167.78,0,0,1-23.94-15,127.17,127.17,0,0,1-19.06-17.64,95.18,95.18,0,0,1-13.4-19.73,75.39,75.39,0,0,1-7-21.26,70.13,70.13,0,0,1,.57-26.3,80.17,80.17,0,0,1,12.75-28.93,117.24,117.24,0,0,1,22.12-23.54l3.2-2.65.09.4.42,2c.32,1.57.66,3.19,1.08,4.75a32,32,0,0,0,3.48,8.11c3.22,5.4,7.92,10.4,14.39,15.29,13.2,10,30.63,17.55,53.31,23.13,3.67.9,7.44,1.65,11.09,2.38l4.61.94a5.18,5.18,0,0,0,.54.07,3.29,3.29,0,0,1,1.55.39c.14.11.22.18.21.37a.76.76,0,0,0,0,.17,11.08,11.08,0,0,1,0,2.51c0,.4-.06.79-.07,1.16-.18,9.66,0,17.49.42,24.65,1.53,23.7,5.76,43.44,12.93,60.36a85.82,85.82,0,0,0,12.06,20.79A84.94,84.94,0,0,0,267,338.2Zm-10.9-1.31,9.41.7-2.65-2.27a84.64,84.64,0,0,1-11.25-10.85,86.48,86.48,0,0,1-12.13-20.91c-7.19-17-11.44-36.77-13-60.53-.47-7.17-.6-15-.42-24.69,0-.38,0-.78.07-1.19a10,10,0,0,0,0-2.39c0-.09,0-.16,0-.21h0a3.13,3.13,0,0,0-1.31-.3l-.59-.08-4.61-.94c-3.65-.73-7.42-1.48-11.11-2.39-22.74-5.59-40.24-13.18-53.49-23.21-6.52-4.93-11.27-10-14.52-15.43a32.86,32.86,0,0,1-3.54-8.24c-.42-1.58-.76-3.2-1.08-4.78l-.33-1.58L136.78,163a116.79,116.79,0,0,0-22,23.43,79.85,79.85,0,0,0-12.67,28.75,69.55,69.55,0,0,0-.57,26.11,75.12,75.12,0,0,0,7,21.13A94.8,94.8,0,0,0,121.85,282a126.61,126.61,0,0,0,19,17.57,166.81,166.81,0,0,0,23.87,15A210.29,210.29,0,0,0,193,326.69a250.76,250.76,0,0,0,31.85,8.64A284,284,0,0,0,259.89,340.15Zm22.21-36a16.71,16.71,0,0,1-7.51-1.81h0c-3.59-1.81-6.83-4.79-9.92-9.12a64.86,64.86,0,0,1-7.9-15.67c-4.75-13.08-7.34-28.23-7.91-46.31-.07-2.23-.11-4.49-.11-6.74,0-.13-.1-3.42-.09-4.34v-.27l.27,0a377.34,377.34,0,0,0,55.55.82c3-.19,6.1-.45,9.07-.7l1.7-.15v.27c.16,16.9-1.1,30.71-4,43.45A103.86,103.86,0,0,1,305,283.1a50.47,50.47,0,0,1-8.58,13.74A21.71,21.71,0,0,1,286,303.65,15.19,15.19,0,0,1,282.1,304.15Zm-7.29-2.26a15.8,15.8,0,0,0,11.07,1.28,21.39,21.39,0,0,0,10.22-6.66,50.29,50.29,0,0,0,8.48-13.61,102.91,102.91,0,0,0,6.22-19.4c2.84-12.64,4.09-26.33,3.95-43.06l-1.15.1c-3,.25-6.06.5-9.09.7a377.2,377.2,0,0,1-55.35-.8c0,1.16.09,4,.09,4.05,0,2.25,0,4.51.11,6.74.57,18,3.15,33.12,7.88,46.15a64.41,64.41,0,0,0,7.84,15.55c3,4.26,6.22,7.19,9.73,9Zm5.93-105c-6.82,0-13.35-.18-19.66-.56-2.41-.14-4.85-.32-7.21-.49l-2.46-.18.05-.27c1.47-8.34,3.29-17.23,6.68-25.72,3.59-9,7.65-15,12.77-19,4.94-3.85,10.88-5.08,16.3-3.39s10.33,6.12,14.54,13.14c4.82,8.05,8.18,18,10.57,31.35l.67,3.91-.28,0C301.3,196.5,290.71,196.9,280.74,196.9ZM252,195.21l1.9.14c2.36.17,4.81.35,7.21.49a393.4,393.4,0,0,0,51.29-.63l-.57-3.36c-2.38-13.28-5.72-23.19-10.51-31.18-4.14-6.92-8.94-11.26-14.26-12.92s-11-.44-15.84,3.3c-5.05,3.94-9.06,9.92-12.62,18.82C255.27,178.22,253.45,187,252,195.21Zm79.66-1.79,0-.25c-2.69-16.49-6.13-29.41-10.84-40.67-5.66-13.55-12.31-23.29-20.31-29.78-1.87-1.51-3.74-3-5.62-4.5l-3.38-2.7,11.28.69A265.52,265.52,0,0,1,350.5,123c9.64,2.38,22.1,6,33,12.86,10.07,6.35,15.13,13.8,14.63,21.55-.59,9-7.74,16.6-21.86,23.37-13.86,6.64-28.95,9.85-41.88,12.12ZM293,116.11l2.15,1.72c1.87,1.5,3.75,3,5.61,4.5,8.07,6.54,14.77,16.35,20.46,30,4.7,11.23,8.14,24.12,10.83,40.52l2.23-.39c12.9-2.26,27.95-5.46,41.75-12.07s21-14.19,21.58-23c.5-7.67-4.35-14.76-14.4-21.1-10.84-6.83-23.25-10.42-32.85-12.79a264.51,264.51,0,0,0-47.66-6.82Zm-60.31,77.31-.25,0C219,191,207.85,188.56,197,184.54c-8.1-3-18.27-7.42-25.15-15-5.13-5.67-6.85-12.68-4.61-18.75,1.49-4.21,4.55-8.08,9.36-11.83a71.23,71.23,0,0,1,17.94-9.79c15.48-6.16,33.62-10,57.11-12.17,5.76-.53,11.64-.87,17.32-1.2l3.95-.23-8.59,6.86a55.5,55.5,0,0,0-10.14,10.81c-7.14,9.83-12.67,22.27-16.89,38-1.9,7.1-3.18,14.12-4.55,21.91Zm38.67-77.29-2.38.14c-5.68.33-11.55.67-17.31,1.19-23.43,2.15-41.53,6-57,12.15a71,71,0,0,0-17.81,9.71c-4.73,3.69-7.74,7.49-9.2,11.61h0c-2.21,6-.56,12.63,4.51,18.25,6.81,7.53,16.91,11.91,24.95,14.89,10.76,4,21.83,6.39,35.13,8.76,1.35-7.69,2.63-14.65,4.52-21.7,4.24-15.84,9.79-28.34,17-38.21A56.27,56.27,0,0,1,264,122Z" style="fill:url(#New_Gradient_Swatch_2)"/></g></svg>